G75*
%MOIN*%
%OFA0B0*%
%FSLAX25Y25*%
%IPPOS*%
%LPD*%
%AMOC8*
5,1,8,0,0,1.08239X$1,22.5*
%
%ADD10C,0.00000*%
%ADD11C,0.05600*%
%ADD12OC8,0.05600*%
%ADD13C,0.06400*%
%ADD14C,0.06400*%
%ADD15OC8,0.06400*%
%ADD16C,0.05600*%
%ADD17OC8,0.06300*%
%ADD18C,0.06300*%
%ADD19C,0.06337*%
%ADD20C,0.02400*%
%ADD21C,0.03200*%
%ADD22C,0.01600*%
%ADD23C,0.05550*%
%ADD24OC8,0.06337*%
D10*
X0019478Y0006800D02*
X0019478Y0294202D01*
X0216329Y0294202D01*
X0216329Y0006800D01*
X0019478Y0006800D01*
X0025383Y0018611D02*
X0025385Y0018764D01*
X0025391Y0018918D01*
X0025401Y0019071D01*
X0025415Y0019223D01*
X0025433Y0019376D01*
X0025455Y0019527D01*
X0025480Y0019678D01*
X0025510Y0019829D01*
X0025544Y0019979D01*
X0025581Y0020127D01*
X0025622Y0020275D01*
X0025667Y0020421D01*
X0025716Y0020567D01*
X0025769Y0020711D01*
X0025825Y0020853D01*
X0025885Y0020994D01*
X0025949Y0021134D01*
X0026016Y0021272D01*
X0026087Y0021408D01*
X0026162Y0021542D01*
X0026239Y0021674D01*
X0026321Y0021804D01*
X0026405Y0021932D01*
X0026493Y0022058D01*
X0026584Y0022181D01*
X0026678Y0022302D01*
X0026776Y0022420D01*
X0026876Y0022536D01*
X0026980Y0022649D01*
X0027086Y0022760D01*
X0027195Y0022868D01*
X0027307Y0022973D01*
X0027421Y0023074D01*
X0027539Y0023173D01*
X0027658Y0023269D01*
X0027780Y0023362D01*
X0027905Y0023451D01*
X0028032Y0023538D01*
X0028161Y0023620D01*
X0028292Y0023700D01*
X0028425Y0023776D01*
X0028560Y0023849D01*
X0028697Y0023918D01*
X0028836Y0023983D01*
X0028976Y0024045D01*
X0029118Y0024103D01*
X0029261Y0024158D01*
X0029406Y0024209D01*
X0029552Y0024256D01*
X0029699Y0024299D01*
X0029847Y0024338D01*
X0029996Y0024374D01*
X0030146Y0024405D01*
X0030297Y0024433D01*
X0030448Y0024457D01*
X0030601Y0024477D01*
X0030753Y0024493D01*
X0030906Y0024505D01*
X0031059Y0024513D01*
X0031212Y0024517D01*
X0031366Y0024517D01*
X0031519Y0024513D01*
X0031672Y0024505D01*
X0031825Y0024493D01*
X0031977Y0024477D01*
X0032130Y0024457D01*
X0032281Y0024433D01*
X0032432Y0024405D01*
X0032582Y0024374D01*
X0032731Y0024338D01*
X0032879Y0024299D01*
X0033026Y0024256D01*
X0033172Y0024209D01*
X0033317Y0024158D01*
X0033460Y0024103D01*
X0033602Y0024045D01*
X0033742Y0023983D01*
X0033881Y0023918D01*
X0034018Y0023849D01*
X0034153Y0023776D01*
X0034286Y0023700D01*
X0034417Y0023620D01*
X0034546Y0023538D01*
X0034673Y0023451D01*
X0034798Y0023362D01*
X0034920Y0023269D01*
X0035039Y0023173D01*
X0035157Y0023074D01*
X0035271Y0022973D01*
X0035383Y0022868D01*
X0035492Y0022760D01*
X0035598Y0022649D01*
X0035702Y0022536D01*
X0035802Y0022420D01*
X0035900Y0022302D01*
X0035994Y0022181D01*
X0036085Y0022058D01*
X0036173Y0021932D01*
X0036257Y0021804D01*
X0036339Y0021674D01*
X0036416Y0021542D01*
X0036491Y0021408D01*
X0036562Y0021272D01*
X0036629Y0021134D01*
X0036693Y0020994D01*
X0036753Y0020853D01*
X0036809Y0020711D01*
X0036862Y0020567D01*
X0036911Y0020421D01*
X0036956Y0020275D01*
X0036997Y0020127D01*
X0037034Y0019979D01*
X0037068Y0019829D01*
X0037098Y0019678D01*
X0037123Y0019527D01*
X0037145Y0019376D01*
X0037163Y0019223D01*
X0037177Y0019071D01*
X0037187Y0018918D01*
X0037193Y0018764D01*
X0037195Y0018611D01*
X0037193Y0018458D01*
X0037187Y0018304D01*
X0037177Y0018151D01*
X0037163Y0017999D01*
X0037145Y0017846D01*
X0037123Y0017695D01*
X0037098Y0017544D01*
X0037068Y0017393D01*
X0037034Y0017243D01*
X0036997Y0017095D01*
X0036956Y0016947D01*
X0036911Y0016801D01*
X0036862Y0016655D01*
X0036809Y0016511D01*
X0036753Y0016369D01*
X0036693Y0016228D01*
X0036629Y0016088D01*
X0036562Y0015950D01*
X0036491Y0015814D01*
X0036416Y0015680D01*
X0036339Y0015548D01*
X0036257Y0015418D01*
X0036173Y0015290D01*
X0036085Y0015164D01*
X0035994Y0015041D01*
X0035900Y0014920D01*
X0035802Y0014802D01*
X0035702Y0014686D01*
X0035598Y0014573D01*
X0035492Y0014462D01*
X0035383Y0014354D01*
X0035271Y0014249D01*
X0035157Y0014148D01*
X0035039Y0014049D01*
X0034920Y0013953D01*
X0034798Y0013860D01*
X0034673Y0013771D01*
X0034546Y0013684D01*
X0034417Y0013602D01*
X0034286Y0013522D01*
X0034153Y0013446D01*
X0034018Y0013373D01*
X0033881Y0013304D01*
X0033742Y0013239D01*
X0033602Y0013177D01*
X0033460Y0013119D01*
X0033317Y0013064D01*
X0033172Y0013013D01*
X0033026Y0012966D01*
X0032879Y0012923D01*
X0032731Y0012884D01*
X0032582Y0012848D01*
X0032432Y0012817D01*
X0032281Y0012789D01*
X0032130Y0012765D01*
X0031977Y0012745D01*
X0031825Y0012729D01*
X0031672Y0012717D01*
X0031519Y0012709D01*
X0031366Y0012705D01*
X0031212Y0012705D01*
X0031059Y0012709D01*
X0030906Y0012717D01*
X0030753Y0012729D01*
X0030601Y0012745D01*
X0030448Y0012765D01*
X0030297Y0012789D01*
X0030146Y0012817D01*
X0029996Y0012848D01*
X0029847Y0012884D01*
X0029699Y0012923D01*
X0029552Y0012966D01*
X0029406Y0013013D01*
X0029261Y0013064D01*
X0029118Y0013119D01*
X0028976Y0013177D01*
X0028836Y0013239D01*
X0028697Y0013304D01*
X0028560Y0013373D01*
X0028425Y0013446D01*
X0028292Y0013522D01*
X0028161Y0013602D01*
X0028032Y0013684D01*
X0027905Y0013771D01*
X0027780Y0013860D01*
X0027658Y0013953D01*
X0027539Y0014049D01*
X0027421Y0014148D01*
X0027307Y0014249D01*
X0027195Y0014354D01*
X0027086Y0014462D01*
X0026980Y0014573D01*
X0026876Y0014686D01*
X0026776Y0014802D01*
X0026678Y0014920D01*
X0026584Y0015041D01*
X0026493Y0015164D01*
X0026405Y0015290D01*
X0026321Y0015418D01*
X0026239Y0015548D01*
X0026162Y0015680D01*
X0026087Y0015814D01*
X0026016Y0015950D01*
X0025949Y0016088D01*
X0025885Y0016228D01*
X0025825Y0016369D01*
X0025769Y0016511D01*
X0025716Y0016655D01*
X0025667Y0016801D01*
X0025622Y0016947D01*
X0025581Y0017095D01*
X0025544Y0017243D01*
X0025510Y0017393D01*
X0025480Y0017544D01*
X0025455Y0017695D01*
X0025433Y0017846D01*
X0025415Y0017999D01*
X0025401Y0018151D01*
X0025391Y0018304D01*
X0025385Y0018458D01*
X0025383Y0018611D01*
X0198612Y0018611D02*
X0198614Y0018764D01*
X0198620Y0018918D01*
X0198630Y0019071D01*
X0198644Y0019223D01*
X0198662Y0019376D01*
X0198684Y0019527D01*
X0198709Y0019678D01*
X0198739Y0019829D01*
X0198773Y0019979D01*
X0198810Y0020127D01*
X0198851Y0020275D01*
X0198896Y0020421D01*
X0198945Y0020567D01*
X0198998Y0020711D01*
X0199054Y0020853D01*
X0199114Y0020994D01*
X0199178Y0021134D01*
X0199245Y0021272D01*
X0199316Y0021408D01*
X0199391Y0021542D01*
X0199468Y0021674D01*
X0199550Y0021804D01*
X0199634Y0021932D01*
X0199722Y0022058D01*
X0199813Y0022181D01*
X0199907Y0022302D01*
X0200005Y0022420D01*
X0200105Y0022536D01*
X0200209Y0022649D01*
X0200315Y0022760D01*
X0200424Y0022868D01*
X0200536Y0022973D01*
X0200650Y0023074D01*
X0200768Y0023173D01*
X0200887Y0023269D01*
X0201009Y0023362D01*
X0201134Y0023451D01*
X0201261Y0023538D01*
X0201390Y0023620D01*
X0201521Y0023700D01*
X0201654Y0023776D01*
X0201789Y0023849D01*
X0201926Y0023918D01*
X0202065Y0023983D01*
X0202205Y0024045D01*
X0202347Y0024103D01*
X0202490Y0024158D01*
X0202635Y0024209D01*
X0202781Y0024256D01*
X0202928Y0024299D01*
X0203076Y0024338D01*
X0203225Y0024374D01*
X0203375Y0024405D01*
X0203526Y0024433D01*
X0203677Y0024457D01*
X0203830Y0024477D01*
X0203982Y0024493D01*
X0204135Y0024505D01*
X0204288Y0024513D01*
X0204441Y0024517D01*
X0204595Y0024517D01*
X0204748Y0024513D01*
X0204901Y0024505D01*
X0205054Y0024493D01*
X0205206Y0024477D01*
X0205359Y0024457D01*
X0205510Y0024433D01*
X0205661Y0024405D01*
X0205811Y0024374D01*
X0205960Y0024338D01*
X0206108Y0024299D01*
X0206255Y0024256D01*
X0206401Y0024209D01*
X0206546Y0024158D01*
X0206689Y0024103D01*
X0206831Y0024045D01*
X0206971Y0023983D01*
X0207110Y0023918D01*
X0207247Y0023849D01*
X0207382Y0023776D01*
X0207515Y0023700D01*
X0207646Y0023620D01*
X0207775Y0023538D01*
X0207902Y0023451D01*
X0208027Y0023362D01*
X0208149Y0023269D01*
X0208268Y0023173D01*
X0208386Y0023074D01*
X0208500Y0022973D01*
X0208612Y0022868D01*
X0208721Y0022760D01*
X0208827Y0022649D01*
X0208931Y0022536D01*
X0209031Y0022420D01*
X0209129Y0022302D01*
X0209223Y0022181D01*
X0209314Y0022058D01*
X0209402Y0021932D01*
X0209486Y0021804D01*
X0209568Y0021674D01*
X0209645Y0021542D01*
X0209720Y0021408D01*
X0209791Y0021272D01*
X0209858Y0021134D01*
X0209922Y0020994D01*
X0209982Y0020853D01*
X0210038Y0020711D01*
X0210091Y0020567D01*
X0210140Y0020421D01*
X0210185Y0020275D01*
X0210226Y0020127D01*
X0210263Y0019979D01*
X0210297Y0019829D01*
X0210327Y0019678D01*
X0210352Y0019527D01*
X0210374Y0019376D01*
X0210392Y0019223D01*
X0210406Y0019071D01*
X0210416Y0018918D01*
X0210422Y0018764D01*
X0210424Y0018611D01*
X0210422Y0018458D01*
X0210416Y0018304D01*
X0210406Y0018151D01*
X0210392Y0017999D01*
X0210374Y0017846D01*
X0210352Y0017695D01*
X0210327Y0017544D01*
X0210297Y0017393D01*
X0210263Y0017243D01*
X0210226Y0017095D01*
X0210185Y0016947D01*
X0210140Y0016801D01*
X0210091Y0016655D01*
X0210038Y0016511D01*
X0209982Y0016369D01*
X0209922Y0016228D01*
X0209858Y0016088D01*
X0209791Y0015950D01*
X0209720Y0015814D01*
X0209645Y0015680D01*
X0209568Y0015548D01*
X0209486Y0015418D01*
X0209402Y0015290D01*
X0209314Y0015164D01*
X0209223Y0015041D01*
X0209129Y0014920D01*
X0209031Y0014802D01*
X0208931Y0014686D01*
X0208827Y0014573D01*
X0208721Y0014462D01*
X0208612Y0014354D01*
X0208500Y0014249D01*
X0208386Y0014148D01*
X0208268Y0014049D01*
X0208149Y0013953D01*
X0208027Y0013860D01*
X0207902Y0013771D01*
X0207775Y0013684D01*
X0207646Y0013602D01*
X0207515Y0013522D01*
X0207382Y0013446D01*
X0207247Y0013373D01*
X0207110Y0013304D01*
X0206971Y0013239D01*
X0206831Y0013177D01*
X0206689Y0013119D01*
X0206546Y0013064D01*
X0206401Y0013013D01*
X0206255Y0012966D01*
X0206108Y0012923D01*
X0205960Y0012884D01*
X0205811Y0012848D01*
X0205661Y0012817D01*
X0205510Y0012789D01*
X0205359Y0012765D01*
X0205206Y0012745D01*
X0205054Y0012729D01*
X0204901Y0012717D01*
X0204748Y0012709D01*
X0204595Y0012705D01*
X0204441Y0012705D01*
X0204288Y0012709D01*
X0204135Y0012717D01*
X0203982Y0012729D01*
X0203830Y0012745D01*
X0203677Y0012765D01*
X0203526Y0012789D01*
X0203375Y0012817D01*
X0203225Y0012848D01*
X0203076Y0012884D01*
X0202928Y0012923D01*
X0202781Y0012966D01*
X0202635Y0013013D01*
X0202490Y0013064D01*
X0202347Y0013119D01*
X0202205Y0013177D01*
X0202065Y0013239D01*
X0201926Y0013304D01*
X0201789Y0013373D01*
X0201654Y0013446D01*
X0201521Y0013522D01*
X0201390Y0013602D01*
X0201261Y0013684D01*
X0201134Y0013771D01*
X0201009Y0013860D01*
X0200887Y0013953D01*
X0200768Y0014049D01*
X0200650Y0014148D01*
X0200536Y0014249D01*
X0200424Y0014354D01*
X0200315Y0014462D01*
X0200209Y0014573D01*
X0200105Y0014686D01*
X0200005Y0014802D01*
X0199907Y0014920D01*
X0199813Y0015041D01*
X0199722Y0015164D01*
X0199634Y0015290D01*
X0199550Y0015418D01*
X0199468Y0015548D01*
X0199391Y0015680D01*
X0199316Y0015814D01*
X0199245Y0015950D01*
X0199178Y0016088D01*
X0199114Y0016228D01*
X0199054Y0016369D01*
X0198998Y0016511D01*
X0198945Y0016655D01*
X0198896Y0016801D01*
X0198851Y0016947D01*
X0198810Y0017095D01*
X0198773Y0017243D01*
X0198739Y0017393D01*
X0198709Y0017544D01*
X0198684Y0017695D01*
X0198662Y0017846D01*
X0198644Y0017999D01*
X0198630Y0018151D01*
X0198620Y0018304D01*
X0198614Y0018458D01*
X0198612Y0018611D01*
X0098061Y0272469D02*
X0098063Y0272622D01*
X0098069Y0272776D01*
X0098079Y0272929D01*
X0098093Y0273081D01*
X0098111Y0273234D01*
X0098133Y0273385D01*
X0098158Y0273536D01*
X0098188Y0273687D01*
X0098222Y0273837D01*
X0098259Y0273985D01*
X0098300Y0274133D01*
X0098345Y0274279D01*
X0098394Y0274425D01*
X0098447Y0274569D01*
X0098503Y0274711D01*
X0098563Y0274852D01*
X0098627Y0274992D01*
X0098694Y0275130D01*
X0098765Y0275266D01*
X0098840Y0275400D01*
X0098917Y0275532D01*
X0098999Y0275662D01*
X0099083Y0275790D01*
X0099171Y0275916D01*
X0099262Y0276039D01*
X0099356Y0276160D01*
X0099454Y0276278D01*
X0099554Y0276394D01*
X0099658Y0276507D01*
X0099764Y0276618D01*
X0099873Y0276726D01*
X0099985Y0276831D01*
X0100099Y0276932D01*
X0100217Y0277031D01*
X0100336Y0277127D01*
X0100458Y0277220D01*
X0100583Y0277309D01*
X0100710Y0277396D01*
X0100839Y0277478D01*
X0100970Y0277558D01*
X0101103Y0277634D01*
X0101238Y0277707D01*
X0101375Y0277776D01*
X0101514Y0277841D01*
X0101654Y0277903D01*
X0101796Y0277961D01*
X0101939Y0278016D01*
X0102084Y0278067D01*
X0102230Y0278114D01*
X0102377Y0278157D01*
X0102525Y0278196D01*
X0102674Y0278232D01*
X0102824Y0278263D01*
X0102975Y0278291D01*
X0103126Y0278315D01*
X0103279Y0278335D01*
X0103431Y0278351D01*
X0103584Y0278363D01*
X0103737Y0278371D01*
X0103890Y0278375D01*
X0104044Y0278375D01*
X0104197Y0278371D01*
X0104350Y0278363D01*
X0104503Y0278351D01*
X0104655Y0278335D01*
X0104808Y0278315D01*
X0104959Y0278291D01*
X0105110Y0278263D01*
X0105260Y0278232D01*
X0105409Y0278196D01*
X0105557Y0278157D01*
X0105704Y0278114D01*
X0105850Y0278067D01*
X0105995Y0278016D01*
X0106138Y0277961D01*
X0106280Y0277903D01*
X0106420Y0277841D01*
X0106559Y0277776D01*
X0106696Y0277707D01*
X0106831Y0277634D01*
X0106964Y0277558D01*
X0107095Y0277478D01*
X0107224Y0277396D01*
X0107351Y0277309D01*
X0107476Y0277220D01*
X0107598Y0277127D01*
X0107717Y0277031D01*
X0107835Y0276932D01*
X0107949Y0276831D01*
X0108061Y0276726D01*
X0108170Y0276618D01*
X0108276Y0276507D01*
X0108380Y0276394D01*
X0108480Y0276278D01*
X0108578Y0276160D01*
X0108672Y0276039D01*
X0108763Y0275916D01*
X0108851Y0275790D01*
X0108935Y0275662D01*
X0109017Y0275532D01*
X0109094Y0275400D01*
X0109169Y0275266D01*
X0109240Y0275130D01*
X0109307Y0274992D01*
X0109371Y0274852D01*
X0109431Y0274711D01*
X0109487Y0274569D01*
X0109540Y0274425D01*
X0109589Y0274279D01*
X0109634Y0274133D01*
X0109675Y0273985D01*
X0109712Y0273837D01*
X0109746Y0273687D01*
X0109776Y0273536D01*
X0109801Y0273385D01*
X0109823Y0273234D01*
X0109841Y0273081D01*
X0109855Y0272929D01*
X0109865Y0272776D01*
X0109871Y0272622D01*
X0109873Y0272469D01*
X0109871Y0272316D01*
X0109865Y0272162D01*
X0109855Y0272009D01*
X0109841Y0271857D01*
X0109823Y0271704D01*
X0109801Y0271553D01*
X0109776Y0271402D01*
X0109746Y0271251D01*
X0109712Y0271101D01*
X0109675Y0270953D01*
X0109634Y0270805D01*
X0109589Y0270659D01*
X0109540Y0270513D01*
X0109487Y0270369D01*
X0109431Y0270227D01*
X0109371Y0270086D01*
X0109307Y0269946D01*
X0109240Y0269808D01*
X0109169Y0269672D01*
X0109094Y0269538D01*
X0109017Y0269406D01*
X0108935Y0269276D01*
X0108851Y0269148D01*
X0108763Y0269022D01*
X0108672Y0268899D01*
X0108578Y0268778D01*
X0108480Y0268660D01*
X0108380Y0268544D01*
X0108276Y0268431D01*
X0108170Y0268320D01*
X0108061Y0268212D01*
X0107949Y0268107D01*
X0107835Y0268006D01*
X0107717Y0267907D01*
X0107598Y0267811D01*
X0107476Y0267718D01*
X0107351Y0267629D01*
X0107224Y0267542D01*
X0107095Y0267460D01*
X0106964Y0267380D01*
X0106831Y0267304D01*
X0106696Y0267231D01*
X0106559Y0267162D01*
X0106420Y0267097D01*
X0106280Y0267035D01*
X0106138Y0266977D01*
X0105995Y0266922D01*
X0105850Y0266871D01*
X0105704Y0266824D01*
X0105557Y0266781D01*
X0105409Y0266742D01*
X0105260Y0266706D01*
X0105110Y0266675D01*
X0104959Y0266647D01*
X0104808Y0266623D01*
X0104655Y0266603D01*
X0104503Y0266587D01*
X0104350Y0266575D01*
X0104197Y0266567D01*
X0104044Y0266563D01*
X0103890Y0266563D01*
X0103737Y0266567D01*
X0103584Y0266575D01*
X0103431Y0266587D01*
X0103279Y0266603D01*
X0103126Y0266623D01*
X0102975Y0266647D01*
X0102824Y0266675D01*
X0102674Y0266706D01*
X0102525Y0266742D01*
X0102377Y0266781D01*
X0102230Y0266824D01*
X0102084Y0266871D01*
X0101939Y0266922D01*
X0101796Y0266977D01*
X0101654Y0267035D01*
X0101514Y0267097D01*
X0101375Y0267162D01*
X0101238Y0267231D01*
X0101103Y0267304D01*
X0100970Y0267380D01*
X0100839Y0267460D01*
X0100710Y0267542D01*
X0100583Y0267629D01*
X0100458Y0267718D01*
X0100336Y0267811D01*
X0100217Y0267907D01*
X0100099Y0268006D01*
X0099985Y0268107D01*
X0099873Y0268212D01*
X0099764Y0268320D01*
X0099658Y0268431D01*
X0099554Y0268544D01*
X0099454Y0268660D01*
X0099356Y0268778D01*
X0099262Y0268899D01*
X0099171Y0269022D01*
X0099083Y0269148D01*
X0098999Y0269276D01*
X0098917Y0269406D01*
X0098840Y0269538D01*
X0098765Y0269672D01*
X0098694Y0269808D01*
X0098627Y0269946D01*
X0098563Y0270086D01*
X0098503Y0270227D01*
X0098447Y0270369D01*
X0098394Y0270513D01*
X0098345Y0270659D01*
X0098300Y0270805D01*
X0098259Y0270953D01*
X0098222Y0271101D01*
X0098188Y0271251D01*
X0098158Y0271402D01*
X0098133Y0271553D01*
X0098111Y0271704D01*
X0098093Y0271857D01*
X0098079Y0272009D01*
X0098069Y0272162D01*
X0098063Y0272316D01*
X0098061Y0272469D01*
X0131683Y0282391D02*
X0131685Y0282544D01*
X0131691Y0282698D01*
X0131701Y0282851D01*
X0131715Y0283003D01*
X0131733Y0283156D01*
X0131755Y0283307D01*
X0131780Y0283458D01*
X0131810Y0283609D01*
X0131844Y0283759D01*
X0131881Y0283907D01*
X0131922Y0284055D01*
X0131967Y0284201D01*
X0132016Y0284347D01*
X0132069Y0284491D01*
X0132125Y0284633D01*
X0132185Y0284774D01*
X0132249Y0284914D01*
X0132316Y0285052D01*
X0132387Y0285188D01*
X0132462Y0285322D01*
X0132539Y0285454D01*
X0132621Y0285584D01*
X0132705Y0285712D01*
X0132793Y0285838D01*
X0132884Y0285961D01*
X0132978Y0286082D01*
X0133076Y0286200D01*
X0133176Y0286316D01*
X0133280Y0286429D01*
X0133386Y0286540D01*
X0133495Y0286648D01*
X0133607Y0286753D01*
X0133721Y0286854D01*
X0133839Y0286953D01*
X0133958Y0287049D01*
X0134080Y0287142D01*
X0134205Y0287231D01*
X0134332Y0287318D01*
X0134461Y0287400D01*
X0134592Y0287480D01*
X0134725Y0287556D01*
X0134860Y0287629D01*
X0134997Y0287698D01*
X0135136Y0287763D01*
X0135276Y0287825D01*
X0135418Y0287883D01*
X0135561Y0287938D01*
X0135706Y0287989D01*
X0135852Y0288036D01*
X0135999Y0288079D01*
X0136147Y0288118D01*
X0136296Y0288154D01*
X0136446Y0288185D01*
X0136597Y0288213D01*
X0136748Y0288237D01*
X0136901Y0288257D01*
X0137053Y0288273D01*
X0137206Y0288285D01*
X0137359Y0288293D01*
X0137512Y0288297D01*
X0137666Y0288297D01*
X0137819Y0288293D01*
X0137972Y0288285D01*
X0138125Y0288273D01*
X0138277Y0288257D01*
X0138430Y0288237D01*
X0138581Y0288213D01*
X0138732Y0288185D01*
X0138882Y0288154D01*
X0139031Y0288118D01*
X0139179Y0288079D01*
X0139326Y0288036D01*
X0139472Y0287989D01*
X0139617Y0287938D01*
X0139760Y0287883D01*
X0139902Y0287825D01*
X0140042Y0287763D01*
X0140181Y0287698D01*
X0140318Y0287629D01*
X0140453Y0287556D01*
X0140586Y0287480D01*
X0140717Y0287400D01*
X0140846Y0287318D01*
X0140973Y0287231D01*
X0141098Y0287142D01*
X0141220Y0287049D01*
X0141339Y0286953D01*
X0141457Y0286854D01*
X0141571Y0286753D01*
X0141683Y0286648D01*
X0141792Y0286540D01*
X0141898Y0286429D01*
X0142002Y0286316D01*
X0142102Y0286200D01*
X0142200Y0286082D01*
X0142294Y0285961D01*
X0142385Y0285838D01*
X0142473Y0285712D01*
X0142557Y0285584D01*
X0142639Y0285454D01*
X0142716Y0285322D01*
X0142791Y0285188D01*
X0142862Y0285052D01*
X0142929Y0284914D01*
X0142993Y0284774D01*
X0143053Y0284633D01*
X0143109Y0284491D01*
X0143162Y0284347D01*
X0143211Y0284201D01*
X0143256Y0284055D01*
X0143297Y0283907D01*
X0143334Y0283759D01*
X0143368Y0283609D01*
X0143398Y0283458D01*
X0143423Y0283307D01*
X0143445Y0283156D01*
X0143463Y0283003D01*
X0143477Y0282851D01*
X0143487Y0282698D01*
X0143493Y0282544D01*
X0143495Y0282391D01*
X0143493Y0282238D01*
X0143487Y0282084D01*
X0143477Y0281931D01*
X0143463Y0281779D01*
X0143445Y0281626D01*
X0143423Y0281475D01*
X0143398Y0281324D01*
X0143368Y0281173D01*
X0143334Y0281023D01*
X0143297Y0280875D01*
X0143256Y0280727D01*
X0143211Y0280581D01*
X0143162Y0280435D01*
X0143109Y0280291D01*
X0143053Y0280149D01*
X0142993Y0280008D01*
X0142929Y0279868D01*
X0142862Y0279730D01*
X0142791Y0279594D01*
X0142716Y0279460D01*
X0142639Y0279328D01*
X0142557Y0279198D01*
X0142473Y0279070D01*
X0142385Y0278944D01*
X0142294Y0278821D01*
X0142200Y0278700D01*
X0142102Y0278582D01*
X0142002Y0278466D01*
X0141898Y0278353D01*
X0141792Y0278242D01*
X0141683Y0278134D01*
X0141571Y0278029D01*
X0141457Y0277928D01*
X0141339Y0277829D01*
X0141220Y0277733D01*
X0141098Y0277640D01*
X0140973Y0277551D01*
X0140846Y0277464D01*
X0140717Y0277382D01*
X0140586Y0277302D01*
X0140453Y0277226D01*
X0140318Y0277153D01*
X0140181Y0277084D01*
X0140042Y0277019D01*
X0139902Y0276957D01*
X0139760Y0276899D01*
X0139617Y0276844D01*
X0139472Y0276793D01*
X0139326Y0276746D01*
X0139179Y0276703D01*
X0139031Y0276664D01*
X0138882Y0276628D01*
X0138732Y0276597D01*
X0138581Y0276569D01*
X0138430Y0276545D01*
X0138277Y0276525D01*
X0138125Y0276509D01*
X0137972Y0276497D01*
X0137819Y0276489D01*
X0137666Y0276485D01*
X0137512Y0276485D01*
X0137359Y0276489D01*
X0137206Y0276497D01*
X0137053Y0276509D01*
X0136901Y0276525D01*
X0136748Y0276545D01*
X0136597Y0276569D01*
X0136446Y0276597D01*
X0136296Y0276628D01*
X0136147Y0276664D01*
X0135999Y0276703D01*
X0135852Y0276746D01*
X0135706Y0276793D01*
X0135561Y0276844D01*
X0135418Y0276899D01*
X0135276Y0276957D01*
X0135136Y0277019D01*
X0134997Y0277084D01*
X0134860Y0277153D01*
X0134725Y0277226D01*
X0134592Y0277302D01*
X0134461Y0277382D01*
X0134332Y0277464D01*
X0134205Y0277551D01*
X0134080Y0277640D01*
X0133958Y0277733D01*
X0133839Y0277829D01*
X0133721Y0277928D01*
X0133607Y0278029D01*
X0133495Y0278134D01*
X0133386Y0278242D01*
X0133280Y0278353D01*
X0133176Y0278466D01*
X0133076Y0278582D01*
X0132978Y0278700D01*
X0132884Y0278821D01*
X0132793Y0278944D01*
X0132705Y0279070D01*
X0132621Y0279198D01*
X0132539Y0279328D01*
X0132462Y0279460D01*
X0132387Y0279594D01*
X0132316Y0279730D01*
X0132249Y0279868D01*
X0132185Y0280008D01*
X0132125Y0280149D01*
X0132069Y0280291D01*
X0132016Y0280435D01*
X0131967Y0280581D01*
X0131922Y0280727D01*
X0131881Y0280875D01*
X0131844Y0281023D01*
X0131810Y0281173D01*
X0131780Y0281324D01*
X0131755Y0281475D01*
X0131733Y0281626D01*
X0131715Y0281779D01*
X0131701Y0281931D01*
X0131691Y0282084D01*
X0131685Y0282238D01*
X0131683Y0282391D01*
X0037509Y0272469D02*
X0037511Y0272622D01*
X0037517Y0272776D01*
X0037527Y0272929D01*
X0037541Y0273081D01*
X0037559Y0273234D01*
X0037581Y0273385D01*
X0037606Y0273536D01*
X0037636Y0273687D01*
X0037670Y0273837D01*
X0037707Y0273985D01*
X0037748Y0274133D01*
X0037793Y0274279D01*
X0037842Y0274425D01*
X0037895Y0274569D01*
X0037951Y0274711D01*
X0038011Y0274852D01*
X0038075Y0274992D01*
X0038142Y0275130D01*
X0038213Y0275266D01*
X0038288Y0275400D01*
X0038365Y0275532D01*
X0038447Y0275662D01*
X0038531Y0275790D01*
X0038619Y0275916D01*
X0038710Y0276039D01*
X0038804Y0276160D01*
X0038902Y0276278D01*
X0039002Y0276394D01*
X0039106Y0276507D01*
X0039212Y0276618D01*
X0039321Y0276726D01*
X0039433Y0276831D01*
X0039547Y0276932D01*
X0039665Y0277031D01*
X0039784Y0277127D01*
X0039906Y0277220D01*
X0040031Y0277309D01*
X0040158Y0277396D01*
X0040287Y0277478D01*
X0040418Y0277558D01*
X0040551Y0277634D01*
X0040686Y0277707D01*
X0040823Y0277776D01*
X0040962Y0277841D01*
X0041102Y0277903D01*
X0041244Y0277961D01*
X0041387Y0278016D01*
X0041532Y0278067D01*
X0041678Y0278114D01*
X0041825Y0278157D01*
X0041973Y0278196D01*
X0042122Y0278232D01*
X0042272Y0278263D01*
X0042423Y0278291D01*
X0042574Y0278315D01*
X0042727Y0278335D01*
X0042879Y0278351D01*
X0043032Y0278363D01*
X0043185Y0278371D01*
X0043338Y0278375D01*
X0043492Y0278375D01*
X0043645Y0278371D01*
X0043798Y0278363D01*
X0043951Y0278351D01*
X0044103Y0278335D01*
X0044256Y0278315D01*
X0044407Y0278291D01*
X0044558Y0278263D01*
X0044708Y0278232D01*
X0044857Y0278196D01*
X0045005Y0278157D01*
X0045152Y0278114D01*
X0045298Y0278067D01*
X0045443Y0278016D01*
X0045586Y0277961D01*
X0045728Y0277903D01*
X0045868Y0277841D01*
X0046007Y0277776D01*
X0046144Y0277707D01*
X0046279Y0277634D01*
X0046412Y0277558D01*
X0046543Y0277478D01*
X0046672Y0277396D01*
X0046799Y0277309D01*
X0046924Y0277220D01*
X0047046Y0277127D01*
X0047165Y0277031D01*
X0047283Y0276932D01*
X0047397Y0276831D01*
X0047509Y0276726D01*
X0047618Y0276618D01*
X0047724Y0276507D01*
X0047828Y0276394D01*
X0047928Y0276278D01*
X0048026Y0276160D01*
X0048120Y0276039D01*
X0048211Y0275916D01*
X0048299Y0275790D01*
X0048383Y0275662D01*
X0048465Y0275532D01*
X0048542Y0275400D01*
X0048617Y0275266D01*
X0048688Y0275130D01*
X0048755Y0274992D01*
X0048819Y0274852D01*
X0048879Y0274711D01*
X0048935Y0274569D01*
X0048988Y0274425D01*
X0049037Y0274279D01*
X0049082Y0274133D01*
X0049123Y0273985D01*
X0049160Y0273837D01*
X0049194Y0273687D01*
X0049224Y0273536D01*
X0049249Y0273385D01*
X0049271Y0273234D01*
X0049289Y0273081D01*
X0049303Y0272929D01*
X0049313Y0272776D01*
X0049319Y0272622D01*
X0049321Y0272469D01*
X0049319Y0272316D01*
X0049313Y0272162D01*
X0049303Y0272009D01*
X0049289Y0271857D01*
X0049271Y0271704D01*
X0049249Y0271553D01*
X0049224Y0271402D01*
X0049194Y0271251D01*
X0049160Y0271101D01*
X0049123Y0270953D01*
X0049082Y0270805D01*
X0049037Y0270659D01*
X0048988Y0270513D01*
X0048935Y0270369D01*
X0048879Y0270227D01*
X0048819Y0270086D01*
X0048755Y0269946D01*
X0048688Y0269808D01*
X0048617Y0269672D01*
X0048542Y0269538D01*
X0048465Y0269406D01*
X0048383Y0269276D01*
X0048299Y0269148D01*
X0048211Y0269022D01*
X0048120Y0268899D01*
X0048026Y0268778D01*
X0047928Y0268660D01*
X0047828Y0268544D01*
X0047724Y0268431D01*
X0047618Y0268320D01*
X0047509Y0268212D01*
X0047397Y0268107D01*
X0047283Y0268006D01*
X0047165Y0267907D01*
X0047046Y0267811D01*
X0046924Y0267718D01*
X0046799Y0267629D01*
X0046672Y0267542D01*
X0046543Y0267460D01*
X0046412Y0267380D01*
X0046279Y0267304D01*
X0046144Y0267231D01*
X0046007Y0267162D01*
X0045868Y0267097D01*
X0045728Y0267035D01*
X0045586Y0266977D01*
X0045443Y0266922D01*
X0045298Y0266871D01*
X0045152Y0266824D01*
X0045005Y0266781D01*
X0044857Y0266742D01*
X0044708Y0266706D01*
X0044558Y0266675D01*
X0044407Y0266647D01*
X0044256Y0266623D01*
X0044103Y0266603D01*
X0043951Y0266587D01*
X0043798Y0266575D01*
X0043645Y0266567D01*
X0043492Y0266563D01*
X0043338Y0266563D01*
X0043185Y0266567D01*
X0043032Y0266575D01*
X0042879Y0266587D01*
X0042727Y0266603D01*
X0042574Y0266623D01*
X0042423Y0266647D01*
X0042272Y0266675D01*
X0042122Y0266706D01*
X0041973Y0266742D01*
X0041825Y0266781D01*
X0041678Y0266824D01*
X0041532Y0266871D01*
X0041387Y0266922D01*
X0041244Y0266977D01*
X0041102Y0267035D01*
X0040962Y0267097D01*
X0040823Y0267162D01*
X0040686Y0267231D01*
X0040551Y0267304D01*
X0040418Y0267380D01*
X0040287Y0267460D01*
X0040158Y0267542D01*
X0040031Y0267629D01*
X0039906Y0267718D01*
X0039784Y0267811D01*
X0039665Y0267907D01*
X0039547Y0268006D01*
X0039433Y0268107D01*
X0039321Y0268212D01*
X0039212Y0268320D01*
X0039106Y0268431D01*
X0039002Y0268544D01*
X0038902Y0268660D01*
X0038804Y0268778D01*
X0038710Y0268899D01*
X0038619Y0269022D01*
X0038531Y0269148D01*
X0038447Y0269276D01*
X0038365Y0269406D01*
X0038288Y0269538D01*
X0038213Y0269672D01*
X0038142Y0269808D01*
X0038075Y0269946D01*
X0038011Y0270086D01*
X0037951Y0270227D01*
X0037895Y0270369D01*
X0037842Y0270513D01*
X0037793Y0270659D01*
X0037748Y0270805D01*
X0037707Y0270953D01*
X0037670Y0271101D01*
X0037636Y0271251D01*
X0037606Y0271402D01*
X0037581Y0271553D01*
X0037559Y0271704D01*
X0037541Y0271857D01*
X0037527Y0272009D01*
X0037517Y0272162D01*
X0037511Y0272316D01*
X0037509Y0272469D01*
D11*
X0054478Y0214600D02*
X0054478Y0209000D01*
X0064478Y0209000D02*
X0064478Y0214600D01*
X0074478Y0214600D02*
X0074478Y0209000D01*
X0084478Y0209000D02*
X0084478Y0214600D01*
X0094478Y0214600D02*
X0094478Y0209000D01*
X0104478Y0209000D02*
X0104478Y0214600D01*
X0114478Y0214600D02*
X0114478Y0209000D01*
X0124478Y0209000D02*
X0124478Y0214600D01*
X0134478Y0214600D02*
X0134478Y0209000D01*
X0144478Y0209000D02*
X0144478Y0214600D01*
X0154478Y0214600D02*
X0154478Y0209000D01*
X0164478Y0209000D02*
X0164478Y0214600D01*
X0174478Y0214600D02*
X0174478Y0209000D01*
X0184478Y0209000D02*
X0184478Y0214600D01*
X0184478Y0184600D02*
X0184478Y0179000D01*
X0174478Y0179000D02*
X0174478Y0184600D01*
X0164478Y0184600D02*
X0164478Y0179000D01*
X0154478Y0179000D02*
X0154478Y0184600D01*
X0144478Y0184600D02*
X0144478Y0179000D01*
X0134478Y0179000D02*
X0134478Y0184600D01*
X0124478Y0184600D02*
X0124478Y0179000D01*
X0114478Y0179000D02*
X0114478Y0184600D01*
X0104478Y0184600D02*
X0104478Y0179000D01*
X0094478Y0179000D02*
X0094478Y0184600D01*
X0084478Y0184600D02*
X0084478Y0179000D01*
X0074478Y0179000D02*
X0074478Y0184600D01*
X0064478Y0184600D02*
X0064478Y0179000D01*
X0054478Y0179000D02*
X0054478Y0184600D01*
X0086678Y0066800D02*
X0092278Y0066800D01*
X0092278Y0056800D02*
X0086678Y0056800D01*
X0086678Y0046800D02*
X0092278Y0046800D01*
X0092278Y0036800D02*
X0086678Y0036800D01*
X0116678Y0036800D02*
X0122278Y0036800D01*
X0122278Y0046800D02*
X0116678Y0046800D01*
X0116678Y0056800D02*
X0122278Y0056800D01*
X0122278Y0066800D02*
X0116678Y0066800D01*
D12*
X0134478Y0076800D03*
X0149478Y0076800D03*
X0149478Y0101800D03*
X0154478Y0109300D03*
X0159478Y0101800D03*
X0164478Y0131800D03*
X0164478Y0141800D03*
X0144478Y0141800D03*
X0144478Y0131800D03*
X0114478Y0141800D03*
X0114478Y0151800D03*
X0114478Y0171800D03*
X0129478Y0221800D03*
X0129478Y0241800D03*
X0039478Y0211800D03*
X0039478Y0181800D03*
X0114478Y0111800D03*
X0079478Y0076800D03*
X0069478Y0076800D03*
X0069478Y0056800D03*
X0079478Y0046800D03*
X0079478Y0036800D03*
X0049478Y0036800D03*
X0039478Y0041800D03*
X0029478Y0041800D03*
X0039478Y0056800D03*
X0039478Y0076800D03*
X0129478Y0036800D03*
X0134478Y0046800D03*
X0149478Y0046800D03*
X0159478Y0036800D03*
X0159478Y0026800D03*
X0129478Y0026800D03*
X0174478Y0064300D03*
X0194478Y0064300D03*
D13*
X0194478Y0073600D02*
X0194478Y0080000D01*
X0184478Y0080000D02*
X0184478Y0073600D01*
X0174478Y0073600D02*
X0174478Y0080000D01*
X0191278Y0051800D02*
X0197678Y0051800D01*
X0197678Y0041800D02*
X0191278Y0041800D01*
D14*
X0154478Y0246800D03*
D15*
X0154478Y0256800D03*
X0164478Y0256800D03*
X0164478Y0246800D03*
X0174478Y0246800D03*
X0174478Y0256800D03*
D16*
X0163978Y0161800D03*
X0144978Y0161800D03*
D17*
X0124478Y0106800D03*
X0184478Y0106800D03*
D18*
X0174478Y0106800D03*
X0134478Y0106800D03*
D19*
X0109478Y0226800D03*
X0099478Y0226800D03*
X0089478Y0226800D03*
X0079478Y0226800D03*
X0069478Y0226800D03*
X0059478Y0226800D03*
X0049478Y0226800D03*
X0039478Y0226800D03*
D20*
X0029478Y0231800D02*
X0034478Y0236800D01*
X0104478Y0236800D01*
X0109478Y0231800D01*
X0109478Y0226800D01*
X0091978Y0201800D02*
X0094478Y0199300D01*
X0091978Y0201800D02*
X0034478Y0201800D01*
X0029478Y0206800D01*
X0029478Y0231800D01*
X0054478Y0191800D02*
X0194478Y0191800D01*
X0199478Y0196800D01*
X0199478Y0241800D01*
X0194478Y0246800D01*
X0174478Y0246800D01*
X0164478Y0246800D02*
X0164478Y0241800D01*
X0159478Y0236800D01*
X0149478Y0236800D01*
X0144478Y0231800D01*
X0144478Y0211800D01*
X0144478Y0181800D02*
X0144478Y0176800D01*
X0159478Y0161800D01*
X0163978Y0161800D01*
X0163978Y0142300D01*
X0163980Y0142256D01*
X0163986Y0142213D01*
X0163995Y0142171D01*
X0164008Y0142129D01*
X0164025Y0142089D01*
X0164045Y0142050D01*
X0164068Y0142013D01*
X0164095Y0141979D01*
X0164124Y0141946D01*
X0164157Y0141917D01*
X0164191Y0141890D01*
X0164228Y0141867D01*
X0164267Y0141847D01*
X0164307Y0141830D01*
X0164349Y0141817D01*
X0164391Y0141808D01*
X0164434Y0141802D01*
X0164478Y0141800D01*
X0144978Y0161800D02*
X0144478Y0161300D01*
X0144478Y0141800D01*
X0144978Y0161800D02*
X0134478Y0172300D01*
X0134478Y0181800D01*
X0114478Y0141800D02*
X0094478Y0141800D01*
X0084478Y0151800D01*
X0084478Y0181800D01*
X0074478Y0181800D02*
X0074478Y0176800D01*
X0039478Y0141800D01*
X0039478Y0091800D01*
X0041978Y0084300D02*
X0039478Y0081800D01*
X0039478Y0076800D01*
X0034478Y0076800D01*
X0029478Y0071800D01*
X0029478Y0041800D01*
X0039478Y0041800D02*
X0039478Y0056800D01*
X0049478Y0041800D02*
X0054478Y0046800D01*
X0079478Y0046800D01*
X0089478Y0046800D01*
X0089478Y0056800D02*
X0099478Y0056800D01*
X0104478Y0061800D01*
X0104478Y0071800D01*
X0099478Y0076800D01*
X0079478Y0076800D01*
X0069478Y0076800D01*
X0084478Y0066800D02*
X0074478Y0056800D01*
X0069478Y0056800D01*
X0049478Y0041800D02*
X0049478Y0036800D01*
X0041978Y0084300D02*
X0106978Y0084300D01*
X0119478Y0071800D01*
X0124478Y0076800D01*
X0134478Y0076800D01*
X0149478Y0076800D01*
X0154478Y0076800D01*
X0159478Y0071800D01*
X0134478Y0046800D02*
X0134478Y0041800D01*
X0129478Y0036800D01*
X0119478Y0036800D01*
X0119478Y0066800D02*
X0119478Y0071800D01*
X0159478Y0036800D02*
X0159478Y0026800D01*
X0029478Y0141800D02*
X0064478Y0176800D01*
X0064478Y0181800D01*
X0054478Y0181800D02*
X0054478Y0191800D01*
X0029478Y0141800D02*
X0029478Y0091800D01*
D21*
X0084478Y0066800D02*
X0089478Y0066800D01*
X0134478Y0106800D02*
X0139478Y0101800D01*
X0149478Y0101800D01*
X0159478Y0101800D02*
X0164478Y0106800D01*
X0174478Y0106800D01*
X0174478Y0096800D01*
X0159478Y0081800D01*
X0159478Y0071800D01*
X0159478Y0061800D01*
X0179478Y0041800D01*
X0194478Y0041800D01*
X0184478Y0076800D02*
X0184478Y0106800D01*
D22*
X0184478Y0111750D01*
X0182428Y0111750D01*
X0179528Y0108850D01*
X0179528Y0108066D01*
X0178844Y0109717D01*
X0177396Y0111166D01*
X0175503Y0111950D01*
X0173454Y0111950D01*
X0171561Y0111166D01*
X0170795Y0110400D01*
X0163762Y0110400D01*
X0162439Y0109852D01*
X0161426Y0108839D01*
X0159187Y0106600D01*
X0158284Y0106600D01*
X0159078Y0107395D01*
X0159078Y0109300D01*
X0159078Y0111205D01*
X0156384Y0113900D01*
X0154478Y0113900D01*
X0152573Y0113900D01*
X0149878Y0111205D01*
X0149878Y0109300D01*
X0154478Y0109300D01*
X0154478Y0109300D01*
X0149878Y0109300D01*
X0149878Y0107395D01*
X0150673Y0106600D01*
X0147490Y0106600D01*
X0146290Y0105400D01*
X0140970Y0105400D01*
X0139628Y0106741D01*
X0139628Y0107824D01*
X0138844Y0109717D01*
X0137396Y0111166D01*
X0135503Y0111950D01*
X0133454Y0111950D01*
X0131561Y0111166D01*
X0130112Y0109717D01*
X0129428Y0108066D01*
X0129428Y0108850D01*
X0126529Y0111750D01*
X0124478Y0111750D01*
X0122428Y0111750D01*
X0119528Y0108850D01*
X0119528Y0106800D01*
X0119528Y0104750D01*
X0122428Y0101850D01*
X0124478Y0101850D01*
X0124478Y0106800D01*
X0124478Y0106800D01*
X0119528Y0106800D01*
X0124478Y0106800D01*
X0124478Y0106800D01*
X0124478Y0111750D01*
X0124478Y0106800D01*
X0124478Y0106800D01*
X0124478Y0101850D01*
X0126529Y0101850D01*
X0129428Y0104750D01*
X0129428Y0105534D01*
X0130112Y0103883D01*
X0131561Y0102434D01*
X0133454Y0101650D01*
X0134537Y0101650D01*
X0137439Y0098748D01*
X0138762Y0098200D01*
X0146290Y0098200D01*
X0147490Y0097000D01*
X0151467Y0097000D01*
X0154278Y0099812D01*
X0154278Y0103788D01*
X0153367Y0104700D01*
X0154478Y0104700D01*
X0154478Y0109300D01*
X0154478Y0109300D01*
X0154478Y0113900D01*
X0154478Y0109300D01*
X0154478Y0109300D01*
X0154478Y0104700D01*
X0155590Y0104700D01*
X0154678Y0103788D01*
X0154678Y0099812D01*
X0157490Y0097000D01*
X0161467Y0097000D01*
X0164278Y0099812D01*
X0164278Y0101509D01*
X0165970Y0103200D01*
X0170795Y0103200D01*
X0170878Y0103117D01*
X0170878Y0098291D01*
X0164387Y0091800D01*
X0044253Y0091800D01*
X0044253Y0092750D01*
X0043526Y0094505D01*
X0042678Y0095353D01*
X0042678Y0140475D01*
X0077090Y0174886D01*
X0077197Y0174931D01*
X0078548Y0176281D01*
X0079278Y0178045D01*
X0079278Y0185555D01*
X0078548Y0187319D01*
X0077267Y0188600D01*
X0081690Y0188600D01*
X0080409Y0187319D01*
X0079678Y0185555D01*
X0079678Y0178045D01*
X0080409Y0176281D01*
X0081278Y0175412D01*
X0081278Y0151163D01*
X0081766Y0149987D01*
X0082666Y0149087D01*
X0092666Y0139087D01*
X0093842Y0138600D01*
X0110890Y0138600D01*
X0112490Y0137000D01*
X0116467Y0137000D01*
X0119278Y0139812D01*
X0119278Y0143788D01*
X0116467Y0146600D01*
X0112490Y0146600D01*
X0110890Y0145000D01*
X0095804Y0145000D01*
X0087678Y0153125D01*
X0087678Y0175412D01*
X0088548Y0176281D01*
X0089278Y0178045D01*
X0089278Y0185555D01*
X0088548Y0187319D01*
X0087267Y0188600D01*
X0091690Y0188600D01*
X0090409Y0187319D01*
X0089678Y0185555D01*
X0089678Y0178045D01*
X0090409Y0176281D01*
X0091759Y0174931D01*
X0093524Y0174200D01*
X0095433Y0174200D01*
X0097197Y0174931D01*
X0098548Y0176281D01*
X0099278Y0178045D01*
X0099278Y0185555D01*
X0098548Y0187319D01*
X0097267Y0188600D01*
X0101690Y0188600D01*
X0100409Y0187319D01*
X0099678Y0185555D01*
X0099678Y0178045D01*
X0100409Y0176281D01*
X0101759Y0174931D01*
X0103524Y0174200D01*
X0105433Y0174200D01*
X0107197Y0174931D01*
X0108548Y0176281D01*
X0109278Y0178045D01*
X0109278Y0185555D01*
X0108548Y0187319D01*
X0107267Y0188600D01*
X0111690Y0188600D01*
X0110409Y0187319D01*
X0109678Y0185555D01*
X0109678Y0178045D01*
X0110409Y0176281D01*
X0111290Y0175400D01*
X0109678Y0173788D01*
X0109678Y0169812D01*
X0112490Y0167000D01*
X0116467Y0167000D01*
X0119278Y0169812D01*
X0119278Y0173788D01*
X0117667Y0175400D01*
X0118548Y0176281D01*
X0119278Y0178045D01*
X0119278Y0185555D01*
X0118548Y0187319D01*
X0117267Y0188600D01*
X0122196Y0188600D01*
X0122067Y0188534D01*
X0121482Y0188109D01*
X0120970Y0187597D01*
X0120544Y0187011D01*
X0120215Y0186366D01*
X0119992Y0185677D01*
X0119878Y0184962D01*
X0119878Y0181800D01*
X0119878Y0178638D01*
X0119992Y0177923D01*
X0120215Y0177234D01*
X0120544Y0176589D01*
X0120970Y0176003D01*
X0121482Y0175491D01*
X0122067Y0175066D01*
X0122713Y0174737D01*
X0123401Y0174513D01*
X0124116Y0174400D01*
X0124478Y0174400D01*
X0124478Y0181800D01*
X0124478Y0181800D01*
X0119878Y0181800D01*
X0124478Y0181800D01*
X0124478Y0181800D01*
X0124478Y0174400D01*
X0124840Y0174400D01*
X0125556Y0174513D01*
X0126244Y0174737D01*
X0126889Y0175066D01*
X0127475Y0175491D01*
X0127987Y0176003D01*
X0128413Y0176589D01*
X0128741Y0177234D01*
X0128965Y0177923D01*
X0129078Y0178638D01*
X0129078Y0181800D01*
X0129078Y0184962D01*
X0128965Y0185677D01*
X0128741Y0186366D01*
X0128413Y0187011D01*
X0127987Y0187597D01*
X0127475Y0188109D01*
X0126889Y0188534D01*
X0126760Y0188600D01*
X0131690Y0188600D01*
X0130409Y0187319D01*
X0129678Y0185555D01*
X0129678Y0178045D01*
X0130409Y0176281D01*
X0131278Y0175412D01*
X0131278Y0171663D01*
X0131766Y0170487D01*
X0132666Y0169587D01*
X0140178Y0162075D01*
X0140178Y0160845D01*
X0140909Y0159081D01*
X0141278Y0158712D01*
X0141278Y0145388D01*
X0139678Y0143788D01*
X0139678Y0139812D01*
X0142490Y0137000D01*
X0146467Y0137000D01*
X0149278Y0139812D01*
X0149278Y0143788D01*
X0147678Y0145388D01*
X0147678Y0157723D01*
X0147697Y0157731D01*
X0149048Y0159081D01*
X0149778Y0160845D01*
X0149778Y0162755D01*
X0149048Y0164519D01*
X0147697Y0165869D01*
X0145933Y0166600D01*
X0144704Y0166600D01*
X0137678Y0173625D01*
X0137678Y0175412D01*
X0138548Y0176281D01*
X0139278Y0178045D01*
X0139278Y0185555D01*
X0138548Y0187319D01*
X0137267Y0188600D01*
X0141690Y0188600D01*
X0140409Y0187319D01*
X0139678Y0185555D01*
X0139678Y0178045D01*
X0140409Y0176281D01*
X0141759Y0174931D01*
X0141866Y0174886D01*
X0142666Y0174087D01*
X0157666Y0159087D01*
X0158842Y0158600D01*
X0160390Y0158600D01*
X0160778Y0158212D01*
X0160778Y0144888D01*
X0159678Y0143788D01*
X0159678Y0139812D01*
X0162490Y0137000D01*
X0166467Y0137000D01*
X0169278Y0139812D01*
X0169278Y0143788D01*
X0167178Y0145888D01*
X0167178Y0158212D01*
X0168048Y0159081D01*
X0168778Y0160845D01*
X0168778Y0162755D01*
X0168048Y0164519D01*
X0166697Y0165869D01*
X0164933Y0166600D01*
X0163024Y0166600D01*
X0161259Y0165869D01*
X0160597Y0165207D01*
X0148833Y0176971D01*
X0149278Y0178045D01*
X0149278Y0185555D01*
X0148548Y0187319D01*
X0147267Y0188600D01*
X0151690Y0188600D01*
X0150409Y0187319D01*
X0149678Y0185555D01*
X0149678Y0178045D01*
X0150409Y0176281D01*
X0151759Y0174931D01*
X0153524Y0174200D01*
X0155433Y0174200D01*
X0157197Y0174931D01*
X0158548Y0176281D01*
X0159278Y0178045D01*
X0159278Y0185555D01*
X0158548Y0187319D01*
X0157267Y0188600D01*
X0161690Y0188600D01*
X0160409Y0187319D01*
X0159678Y0185555D01*
X0159678Y0178045D01*
X0160409Y0176281D01*
X0161759Y0174931D01*
X0163524Y0174200D01*
X0165433Y0174200D01*
X0167197Y0174931D01*
X0168548Y0176281D01*
X0169278Y0178045D01*
X0169278Y0185555D01*
X0168548Y0187319D01*
X0167267Y0188600D01*
X0171690Y0188600D01*
X0170409Y0187319D01*
X0169678Y0185555D01*
X0169678Y0178045D01*
X0170409Y0176281D01*
X0171759Y0174931D01*
X0173524Y0174200D01*
X0175433Y0174200D01*
X0177197Y0174931D01*
X0178548Y0176281D01*
X0179278Y0178045D01*
X0179278Y0185555D01*
X0178548Y0187319D01*
X0177267Y0188600D01*
X0181690Y0188600D01*
X0180409Y0187319D01*
X0179678Y0185555D01*
X0179678Y0178045D01*
X0180409Y0176281D01*
X0181759Y0174931D01*
X0183524Y0174200D01*
X0185433Y0174200D01*
X0187197Y0174931D01*
X0188548Y0176281D01*
X0189278Y0178045D01*
X0189278Y0185555D01*
X0188548Y0187319D01*
X0187267Y0188600D01*
X0195115Y0188600D01*
X0196291Y0189087D01*
X0201291Y0194087D01*
X0202191Y0194987D01*
X0202678Y0196163D01*
X0202678Y0242437D01*
X0202191Y0243613D01*
X0197191Y0248613D01*
X0196291Y0249513D01*
X0195115Y0250000D01*
X0178632Y0250000D01*
X0176691Y0251941D01*
X0179478Y0254729D01*
X0179478Y0256600D01*
X0174678Y0256600D01*
X0174678Y0257000D01*
X0174278Y0257000D01*
X0174278Y0261800D01*
X0172407Y0261800D01*
X0169620Y0259012D01*
X0166632Y0262000D01*
X0162324Y0262000D01*
X0159478Y0259154D01*
X0156632Y0262000D01*
X0152324Y0262000D01*
X0149278Y0258954D01*
X0149278Y0254646D01*
X0152324Y0251600D01*
X0152478Y0251600D01*
X0151533Y0251208D01*
X0150070Y0249746D01*
X0149278Y0247834D01*
X0149278Y0245766D01*
X0150070Y0243854D01*
X0151533Y0242392D01*
X0153444Y0241600D01*
X0155513Y0241600D01*
X0157424Y0242392D01*
X0158887Y0243854D01*
X0159278Y0244800D01*
X0159278Y0244646D01*
X0161039Y0242886D01*
X0158153Y0240000D01*
X0148842Y0240000D01*
X0147666Y0239513D01*
X0146766Y0238613D01*
X0141766Y0233613D01*
X0141278Y0232437D01*
X0141278Y0218188D01*
X0140409Y0217319D01*
X0139678Y0215555D01*
X0139678Y0208045D01*
X0140409Y0206281D01*
X0141759Y0204931D01*
X0143524Y0204200D01*
X0145433Y0204200D01*
X0147197Y0204931D01*
X0148548Y0206281D01*
X0149278Y0208045D01*
X0149278Y0215555D01*
X0148548Y0217319D01*
X0147678Y0218188D01*
X0147678Y0230475D01*
X0150804Y0233600D01*
X0160115Y0233600D01*
X0161291Y0234087D01*
X0166291Y0239087D01*
X0167191Y0239987D01*
X0167678Y0241163D01*
X0167678Y0242646D01*
X0169478Y0244446D01*
X0172324Y0241600D01*
X0176632Y0241600D01*
X0178632Y0243600D01*
X0193153Y0243600D01*
X0196278Y0240475D01*
X0196278Y0198125D01*
X0193153Y0195000D01*
X0096574Y0195000D01*
X0097183Y0195252D01*
X0098526Y0196595D01*
X0099253Y0198350D01*
X0099253Y0200250D01*
X0098526Y0202005D01*
X0097183Y0203348D01*
X0095428Y0204075D01*
X0094229Y0204075D01*
X0094104Y0204200D01*
X0095433Y0204200D01*
X0097197Y0204931D01*
X0098548Y0206281D01*
X0099278Y0208045D01*
X0099278Y0215555D01*
X0098548Y0217319D01*
X0097197Y0218669D01*
X0095433Y0219400D01*
X0093524Y0219400D01*
X0091759Y0218669D01*
X0090409Y0217319D01*
X0089678Y0215555D01*
X0089678Y0208045D01*
X0090409Y0206281D01*
X0091690Y0205000D01*
X0087267Y0205000D01*
X0088548Y0206281D01*
X0089278Y0208045D01*
X0089278Y0215555D01*
X0088548Y0217319D01*
X0087197Y0218669D01*
X0085433Y0219400D01*
X0083524Y0219400D01*
X0081759Y0218669D01*
X0080409Y0217319D01*
X0079678Y0215555D01*
X0079678Y0208045D01*
X0080409Y0206281D01*
X0081690Y0205000D01*
X0077267Y0205000D01*
X0078548Y0206281D01*
X0079278Y0208045D01*
X0079278Y0215555D01*
X0078548Y0217319D01*
X0077197Y0218669D01*
X0075433Y0219400D01*
X0073524Y0219400D01*
X0071759Y0218669D01*
X0070409Y0217319D01*
X0069678Y0215555D01*
X0069678Y0208045D01*
X0070409Y0206281D01*
X0071690Y0205000D01*
X0067267Y0205000D01*
X0068548Y0206281D01*
X0069278Y0208045D01*
X0069278Y0215555D01*
X0068548Y0217319D01*
X0067197Y0218669D01*
X0065433Y0219400D01*
X0063524Y0219400D01*
X0061759Y0218669D01*
X0060409Y0217319D01*
X0059678Y0215555D01*
X0059678Y0208045D01*
X0060409Y0206281D01*
X0061690Y0205000D01*
X0057267Y0205000D01*
X0058548Y0206281D01*
X0059278Y0208045D01*
X0059278Y0215555D01*
X0058548Y0217319D01*
X0057197Y0218669D01*
X0055433Y0219400D01*
X0053524Y0219400D01*
X0051759Y0218669D01*
X0050409Y0217319D01*
X0049678Y0215555D01*
X0049678Y0208045D01*
X0050409Y0206281D01*
X0051690Y0205000D01*
X0035804Y0205000D01*
X0032678Y0208125D01*
X0032678Y0230475D01*
X0035804Y0233600D01*
X0103153Y0233600D01*
X0106061Y0230692D01*
X0105097Y0229728D01*
X0104336Y0227891D01*
X0104324Y0227963D01*
X0104083Y0228707D01*
X0103728Y0229404D01*
X0103268Y0230037D01*
X0102715Y0230590D01*
X0102082Y0231049D01*
X0101386Y0231404D01*
X0100642Y0231646D01*
X0099869Y0231768D01*
X0099663Y0231768D01*
X0099663Y0226984D01*
X0099294Y0226984D01*
X0099294Y0231768D01*
X0099087Y0231768D01*
X0098315Y0231646D01*
X0097571Y0231404D01*
X0096874Y0231049D01*
X0096242Y0230590D01*
X0095689Y0230037D01*
X0095229Y0229404D01*
X0094874Y0228707D01*
X0094632Y0227963D01*
X0094621Y0227891D01*
X0093860Y0229728D01*
X0092406Y0231182D01*
X0090506Y0231968D01*
X0088450Y0231968D01*
X0086551Y0231182D01*
X0085097Y0229728D01*
X0084478Y0228235D01*
X0083860Y0229728D01*
X0082406Y0231182D01*
X0080506Y0231968D01*
X0078450Y0231968D01*
X0076551Y0231182D01*
X0075097Y0229728D01*
X0074478Y0228235D01*
X0073860Y0229728D01*
X0072406Y0231182D01*
X0070506Y0231968D01*
X0068450Y0231968D01*
X0066551Y0231182D01*
X0065097Y0229728D01*
X0064478Y0228235D01*
X0063860Y0229728D01*
X0062406Y0231182D01*
X0060506Y0231968D01*
X0058450Y0231968D01*
X0056551Y0231182D01*
X0055097Y0229728D01*
X0054336Y0227891D01*
X0054324Y0227963D01*
X0054083Y0228707D01*
X0053728Y0229404D01*
X0053268Y0230037D01*
X0052715Y0230590D01*
X0052082Y0231049D01*
X0051386Y0231404D01*
X0050642Y0231646D01*
X0049869Y0231768D01*
X0049663Y0231768D01*
X0049663Y0226984D01*
X0049294Y0226984D01*
X0049294Y0231768D01*
X0049087Y0231768D01*
X0048315Y0231646D01*
X0047571Y0231404D01*
X0046874Y0231049D01*
X0046242Y0230590D01*
X0045689Y0230037D01*
X0045229Y0229404D01*
X0044874Y0228707D01*
X0044632Y0227963D01*
X0044621Y0227891D01*
X0043860Y0229728D01*
X0042406Y0231182D01*
X0040506Y0231968D01*
X0038450Y0231968D01*
X0036551Y0231182D01*
X0035097Y0229728D01*
X0034310Y0227828D01*
X0034310Y0225772D01*
X0035097Y0223872D01*
X0036551Y0222418D01*
X0038450Y0221631D01*
X0040506Y0221631D01*
X0042406Y0222418D01*
X0043860Y0223872D01*
X0044621Y0225709D01*
X0044632Y0225637D01*
X0044874Y0224893D01*
X0045229Y0224196D01*
X0045689Y0223563D01*
X0046242Y0223010D01*
X0046874Y0222551D01*
X0047571Y0222196D01*
X0048315Y0221954D01*
X0049087Y0221831D01*
X0049294Y0221831D01*
X0049294Y0226616D01*
X0049663Y0226616D01*
X0049663Y0221831D01*
X0049869Y0221831D01*
X0050642Y0221954D01*
X0051386Y0222196D01*
X0052082Y0222551D01*
X0052715Y0223010D01*
X0053268Y0223563D01*
X0053728Y0224196D01*
X0054083Y0224893D01*
X0054324Y0225637D01*
X0054336Y0225709D01*
X0055097Y0223872D01*
X0056551Y0222418D01*
X0058450Y0221631D01*
X0060506Y0221631D01*
X0062406Y0222418D01*
X0063860Y0223872D01*
X0064478Y0225365D01*
X0065097Y0223872D01*
X0066551Y0222418D01*
X0068450Y0221631D01*
X0070506Y0221631D01*
X0072406Y0222418D01*
X0073860Y0223872D01*
X0074478Y0225365D01*
X0075097Y0223872D01*
X0076551Y0222418D01*
X0078450Y0221631D01*
X0080506Y0221631D01*
X0082406Y0222418D01*
X0083860Y0223872D01*
X0084478Y0225365D01*
X0085097Y0223872D01*
X0086551Y0222418D01*
X0088450Y0221631D01*
X0090506Y0221631D01*
X0092406Y0222418D01*
X0093860Y0223872D01*
X0094621Y0225709D01*
X0094632Y0225637D01*
X0094874Y0224893D01*
X0095229Y0224196D01*
X0095689Y0223563D01*
X0096242Y0223010D01*
X0096874Y0222551D01*
X0097571Y0222196D01*
X0098315Y0221954D01*
X0099087Y0221831D01*
X0099294Y0221831D01*
X0099294Y0226616D01*
X0099663Y0226616D01*
X0099663Y0221831D01*
X0099869Y0221831D01*
X0100642Y0221954D01*
X0101386Y0222196D01*
X0102082Y0222551D01*
X0102715Y0223010D01*
X0103268Y0223563D01*
X0103728Y0224196D01*
X0104083Y0224893D01*
X0104324Y0225637D01*
X0104336Y0225709D01*
X0105097Y0223872D01*
X0106551Y0222418D01*
X0108450Y0221631D01*
X0110506Y0221631D01*
X0112406Y0222418D01*
X0113860Y0223872D01*
X0114647Y0225772D01*
X0114647Y0227828D01*
X0113860Y0229728D01*
X0112678Y0230909D01*
X0112678Y0232437D01*
X0112191Y0233613D01*
X0111291Y0234513D01*
X0106291Y0239513D01*
X0105115Y0240000D01*
X0033842Y0240000D01*
X0032666Y0239513D01*
X0031766Y0238613D01*
X0026766Y0233613D01*
X0026278Y0232437D01*
X0026278Y0206163D01*
X0026766Y0204987D01*
X0027666Y0204087D01*
X0031766Y0199987D01*
X0032666Y0199087D01*
X0033842Y0198600D01*
X0089704Y0198600D01*
X0089704Y0198350D01*
X0090430Y0196595D01*
X0091774Y0195252D01*
X0092382Y0195000D01*
X0053842Y0195000D01*
X0052666Y0194513D01*
X0051766Y0193613D01*
X0051278Y0192437D01*
X0051278Y0188188D01*
X0050409Y0187319D01*
X0049678Y0185555D01*
X0049678Y0178045D01*
X0050409Y0176281D01*
X0051759Y0174931D01*
X0053524Y0174200D01*
X0055433Y0174200D01*
X0057197Y0174931D01*
X0058548Y0176281D01*
X0059278Y0178045D01*
X0059278Y0185555D01*
X0058548Y0187319D01*
X0057678Y0188188D01*
X0057678Y0188600D01*
X0061690Y0188600D01*
X0060409Y0187319D01*
X0059678Y0185555D01*
X0059678Y0178045D01*
X0060123Y0176971D01*
X0027666Y0144513D01*
X0027666Y0144513D01*
X0026766Y0143613D01*
X0026278Y0142437D01*
X0026278Y0095353D01*
X0025430Y0094505D01*
X0024704Y0092750D01*
X0024704Y0091800D01*
X0024278Y0091800D01*
X0024278Y0289402D01*
X0125711Y0289402D01*
X0124736Y0287714D01*
X0123796Y0284206D01*
X0123796Y0280575D01*
X0124736Y0277067D01*
X0126552Y0273922D01*
X0129120Y0271354D01*
X0132265Y0269538D01*
X0135773Y0268598D01*
X0139404Y0268598D01*
X0142912Y0269538D01*
X0146057Y0271354D01*
X0148625Y0273922D01*
X0150441Y0277067D01*
X0151381Y0280575D01*
X0151381Y0284206D01*
X0150441Y0287714D01*
X0149467Y0289402D01*
X0211529Y0289402D01*
X0211529Y0091800D01*
X0174570Y0091800D01*
X0177530Y0094761D01*
X0178078Y0096084D01*
X0178078Y0103117D01*
X0178844Y0103883D01*
X0179528Y0105534D01*
X0179528Y0104750D01*
X0182428Y0101850D01*
X0184478Y0101850D01*
X0184478Y0106800D01*
X0184478Y0106800D01*
X0184478Y0106800D01*
X0184478Y0111750D01*
X0186529Y0111750D01*
X0189428Y0108850D01*
X0189428Y0106800D01*
X0184478Y0106800D01*
X0184478Y0101850D01*
X0186529Y0101850D01*
X0189428Y0104750D01*
X0189428Y0106800D01*
X0184478Y0106800D01*
X0184478Y0106800D01*
X0184478Y0107506D02*
X0184478Y0107506D01*
X0184478Y0105908D02*
X0184478Y0105908D01*
X0184478Y0104309D02*
X0184478Y0104309D01*
X0184478Y0102711D02*
X0184478Y0102711D01*
X0181567Y0102711D02*
X0178078Y0102711D01*
X0178078Y0101112D02*
X0211529Y0101112D01*
X0211529Y0099514D02*
X0178078Y0099514D01*
X0178078Y0097915D02*
X0211529Y0097915D01*
X0211529Y0096317D02*
X0178078Y0096317D01*
X0177488Y0094718D02*
X0211529Y0094718D01*
X0211529Y0093120D02*
X0175889Y0093120D01*
X0170502Y0097915D02*
X0162382Y0097915D01*
X0163980Y0099514D02*
X0170878Y0099514D01*
X0170878Y0101112D02*
X0164278Y0101112D01*
X0165480Y0102711D02*
X0170878Y0102711D01*
X0168904Y0096317D02*
X0042678Y0096317D01*
X0042678Y0097915D02*
X0146575Y0097915D01*
X0152382Y0097915D02*
X0156575Y0097915D01*
X0154976Y0099514D02*
X0153980Y0099514D01*
X0154278Y0101112D02*
X0154678Y0101112D01*
X0154678Y0102711D02*
X0154278Y0102711D01*
X0153757Y0104309D02*
X0155199Y0104309D01*
X0154478Y0105908D02*
X0154478Y0105908D01*
X0154478Y0107506D02*
X0154478Y0107506D01*
X0154478Y0109105D02*
X0154478Y0109105D01*
X0154478Y0109300D02*
X0154478Y0109300D01*
X0159078Y0109300D01*
X0154478Y0109300D01*
X0154478Y0110703D02*
X0154478Y0110703D01*
X0154478Y0112302D02*
X0154478Y0112302D01*
X0157982Y0112302D02*
X0211529Y0112302D01*
X0211529Y0113900D02*
X0118883Y0113900D01*
X0119078Y0113705D02*
X0116384Y0116400D01*
X0114478Y0116400D01*
X0112573Y0116400D01*
X0109878Y0113705D01*
X0109878Y0111800D01*
X0114478Y0111800D01*
X0114478Y0111800D01*
X0109878Y0111800D01*
X0109878Y0109895D01*
X0112573Y0107200D01*
X0114478Y0107200D01*
X0114478Y0111800D01*
X0114478Y0116400D01*
X0114478Y0111800D01*
X0114478Y0111800D01*
X0114478Y0111800D01*
X0114478Y0107200D01*
X0116384Y0107200D01*
X0119078Y0109895D01*
X0119078Y0111800D01*
X0119078Y0113705D01*
X0119078Y0112302D02*
X0150975Y0112302D01*
X0149878Y0110703D02*
X0137858Y0110703D01*
X0139098Y0109105D02*
X0149878Y0109105D01*
X0149878Y0107506D02*
X0139628Y0107506D01*
X0140462Y0105908D02*
X0146798Y0105908D01*
X0136674Y0099514D02*
X0042678Y0099514D01*
X0042678Y0101112D02*
X0135075Y0101112D01*
X0131284Y0102711D02*
X0127389Y0102711D01*
X0128988Y0104309D02*
X0129936Y0104309D01*
X0129859Y0109105D02*
X0129174Y0109105D01*
X0127575Y0110703D02*
X0131098Y0110703D01*
X0124478Y0110703D02*
X0124478Y0110703D01*
X0124478Y0109105D02*
X0124478Y0109105D01*
X0124478Y0107506D02*
X0124478Y0107506D01*
X0124478Y0105908D02*
X0124478Y0105908D01*
X0124478Y0104309D02*
X0124478Y0104309D01*
X0124478Y0102711D02*
X0124478Y0102711D01*
X0121567Y0102711D02*
X0042678Y0102711D01*
X0042678Y0104309D02*
X0119969Y0104309D01*
X0119528Y0105908D02*
X0042678Y0105908D01*
X0042678Y0107506D02*
X0112267Y0107506D01*
X0114478Y0107506D02*
X0114478Y0107506D01*
X0114478Y0109105D02*
X0114478Y0109105D01*
X0114478Y0110703D02*
X0114478Y0110703D01*
X0114478Y0111800D02*
X0114478Y0111800D01*
X0119078Y0111800D01*
X0114478Y0111800D01*
X0114478Y0112302D02*
X0114478Y0112302D01*
X0114478Y0113900D02*
X0114478Y0113900D01*
X0114478Y0115499D02*
X0114478Y0115499D01*
X0111672Y0115499D02*
X0042678Y0115499D01*
X0042678Y0117097D02*
X0211529Y0117097D01*
X0211529Y0115499D02*
X0117285Y0115499D01*
X0119078Y0110703D02*
X0121381Y0110703D01*
X0119783Y0109105D02*
X0118288Y0109105D01*
X0119528Y0107506D02*
X0116690Y0107506D01*
X0110668Y0109105D02*
X0042678Y0109105D01*
X0042678Y0110703D02*
X0109878Y0110703D01*
X0109878Y0112302D02*
X0042678Y0112302D01*
X0042678Y0113900D02*
X0110073Y0113900D01*
X0111612Y0137878D02*
X0042678Y0137878D01*
X0042678Y0139476D02*
X0092276Y0139476D01*
X0090678Y0141075D02*
X0043279Y0141075D01*
X0044877Y0142673D02*
X0089079Y0142673D01*
X0087481Y0144272D02*
X0046476Y0144272D01*
X0048074Y0145870D02*
X0085882Y0145870D01*
X0084284Y0147469D02*
X0049673Y0147469D01*
X0051271Y0149068D02*
X0082685Y0149068D01*
X0081484Y0150666D02*
X0052870Y0150666D01*
X0054468Y0152265D02*
X0081278Y0152265D01*
X0081278Y0153863D02*
X0056067Y0153863D01*
X0057665Y0155462D02*
X0081278Y0155462D01*
X0081278Y0157060D02*
X0059264Y0157060D01*
X0060862Y0158659D02*
X0081278Y0158659D01*
X0081278Y0160257D02*
X0062461Y0160257D01*
X0064059Y0161856D02*
X0081278Y0161856D01*
X0081278Y0163454D02*
X0065658Y0163454D01*
X0067256Y0165053D02*
X0081278Y0165053D01*
X0081278Y0166651D02*
X0068855Y0166651D01*
X0070453Y0168250D02*
X0081278Y0168250D01*
X0081278Y0169848D02*
X0072052Y0169848D01*
X0073650Y0171447D02*
X0081278Y0171447D01*
X0081278Y0173045D02*
X0075249Y0173045D01*
X0076848Y0174644D02*
X0081278Y0174644D01*
X0080448Y0176242D02*
X0078509Y0176242D01*
X0079194Y0177841D02*
X0079763Y0177841D01*
X0079678Y0179439D02*
X0079278Y0179439D01*
X0079278Y0181038D02*
X0079678Y0181038D01*
X0079678Y0182636D02*
X0079278Y0182636D01*
X0079278Y0184235D02*
X0079678Y0184235D01*
X0079794Y0185833D02*
X0079163Y0185833D01*
X0078435Y0187432D02*
X0080522Y0187432D01*
X0088435Y0187432D02*
X0090522Y0187432D01*
X0089794Y0185833D02*
X0089163Y0185833D01*
X0089278Y0184235D02*
X0089678Y0184235D01*
X0089678Y0182636D02*
X0089278Y0182636D01*
X0089278Y0181038D02*
X0089678Y0181038D01*
X0089678Y0179439D02*
X0089278Y0179439D01*
X0089194Y0177841D02*
X0089763Y0177841D01*
X0090448Y0176242D02*
X0088509Y0176242D01*
X0087678Y0174644D02*
X0092452Y0174644D01*
X0096504Y0174644D02*
X0102452Y0174644D01*
X0100448Y0176242D02*
X0098509Y0176242D01*
X0099194Y0177841D02*
X0099763Y0177841D01*
X0099678Y0179439D02*
X0099278Y0179439D01*
X0099278Y0181038D02*
X0099678Y0181038D01*
X0099678Y0182636D02*
X0099278Y0182636D01*
X0099278Y0184235D02*
X0099678Y0184235D01*
X0099794Y0185833D02*
X0099163Y0185833D01*
X0098435Y0187432D02*
X0100522Y0187432D01*
X0108435Y0187432D02*
X0110522Y0187432D01*
X0109794Y0185833D02*
X0109163Y0185833D01*
X0109278Y0184235D02*
X0109678Y0184235D01*
X0109678Y0182636D02*
X0109278Y0182636D01*
X0109278Y0181038D02*
X0109678Y0181038D01*
X0109678Y0179439D02*
X0109278Y0179439D01*
X0109194Y0177841D02*
X0109763Y0177841D01*
X0110448Y0176242D02*
X0108509Y0176242D01*
X0106504Y0174644D02*
X0110534Y0174644D01*
X0109678Y0173045D02*
X0087678Y0173045D01*
X0087678Y0171447D02*
X0109678Y0171447D01*
X0109678Y0169848D02*
X0087678Y0169848D01*
X0087678Y0168250D02*
X0111240Y0168250D01*
X0117716Y0168250D02*
X0134003Y0168250D01*
X0132405Y0169848D02*
X0119278Y0169848D01*
X0119278Y0171447D02*
X0131368Y0171447D01*
X0131278Y0173045D02*
X0119278Y0173045D01*
X0118423Y0174644D02*
X0123000Y0174644D01*
X0124478Y0174644D02*
X0124478Y0174644D01*
X0125957Y0174644D02*
X0131278Y0174644D01*
X0130448Y0176242D02*
X0128161Y0176242D01*
X0128938Y0177841D02*
X0129763Y0177841D01*
X0129678Y0179439D02*
X0129078Y0179439D01*
X0129078Y0181038D02*
X0129678Y0181038D01*
X0129078Y0181800D02*
X0124478Y0181800D01*
X0129078Y0181800D01*
X0129078Y0182636D02*
X0129678Y0182636D01*
X0129678Y0184235D02*
X0129078Y0184235D01*
X0128914Y0185833D02*
X0129794Y0185833D01*
X0130522Y0187432D02*
X0128107Y0187432D01*
X0124478Y0181800D02*
X0124478Y0181800D01*
X0124478Y0181038D02*
X0124478Y0181038D01*
X0124478Y0179439D02*
X0124478Y0179439D01*
X0124478Y0177841D02*
X0124478Y0177841D01*
X0124478Y0176242D02*
X0124478Y0176242D01*
X0120796Y0176242D02*
X0118509Y0176242D01*
X0119194Y0177841D02*
X0120018Y0177841D01*
X0119878Y0179439D02*
X0119278Y0179439D01*
X0119278Y0181038D02*
X0119878Y0181038D01*
X0119878Y0182636D02*
X0119278Y0182636D01*
X0119278Y0184235D02*
X0119878Y0184235D01*
X0120042Y0185833D02*
X0119163Y0185833D01*
X0118435Y0187432D02*
X0120850Y0187432D01*
X0123524Y0204200D02*
X0121759Y0204931D01*
X0120409Y0206281D01*
X0119678Y0208045D01*
X0119678Y0215555D01*
X0120409Y0217319D01*
X0121759Y0218669D01*
X0123524Y0219400D01*
X0125090Y0219400D01*
X0124678Y0219812D01*
X0124678Y0223788D01*
X0127490Y0226600D01*
X0131467Y0226600D01*
X0134278Y0223788D01*
X0134278Y0219812D01*
X0133867Y0219400D01*
X0135433Y0219400D01*
X0137197Y0218669D01*
X0138548Y0217319D01*
X0139278Y0215555D01*
X0139278Y0208045D01*
X0138548Y0206281D01*
X0137197Y0204931D01*
X0135433Y0204200D01*
X0133524Y0204200D01*
X0131759Y0204931D01*
X0130409Y0206281D01*
X0129678Y0208045D01*
X0129678Y0215555D01*
X0130277Y0217000D01*
X0128680Y0217000D01*
X0129278Y0215555D01*
X0129278Y0208045D01*
X0128548Y0206281D01*
X0127197Y0204931D01*
X0125433Y0204200D01*
X0123524Y0204200D01*
X0121675Y0205015D02*
X0116791Y0205015D01*
X0116889Y0205066D02*
X0117475Y0205491D01*
X0117987Y0206003D01*
X0118413Y0206589D01*
X0118741Y0207234D01*
X0118965Y0207923D01*
X0119078Y0208638D01*
X0119078Y0211800D01*
X0119078Y0214962D01*
X0118965Y0215677D01*
X0118741Y0216366D01*
X0118413Y0217011D01*
X0117987Y0217597D01*
X0117475Y0218109D01*
X0116889Y0218534D01*
X0116244Y0218863D01*
X0115556Y0219087D01*
X0114840Y0219200D01*
X0114478Y0219200D01*
X0114116Y0219200D01*
X0113401Y0219087D01*
X0112713Y0218863D01*
X0112067Y0218534D01*
X0111482Y0218109D01*
X0110970Y0217597D01*
X0110544Y0217011D01*
X0110215Y0216366D01*
X0109992Y0215677D01*
X0109878Y0214962D01*
X0109878Y0211800D01*
X0109878Y0208638D01*
X0109992Y0207923D01*
X0110215Y0207234D01*
X0110544Y0206589D01*
X0110970Y0206003D01*
X0111482Y0205491D01*
X0112067Y0205066D01*
X0112713Y0204737D01*
X0113401Y0204513D01*
X0114116Y0204400D01*
X0114478Y0204400D01*
X0114478Y0211800D01*
X0114478Y0211800D01*
X0109878Y0211800D01*
X0114478Y0211800D01*
X0114478Y0211800D01*
X0114478Y0219200D01*
X0114478Y0211800D01*
X0114478Y0211800D01*
X0114478Y0204400D01*
X0114840Y0204400D01*
X0115556Y0204513D01*
X0116244Y0204737D01*
X0116889Y0205066D01*
X0118425Y0206614D02*
X0120271Y0206614D01*
X0119678Y0208212D02*
X0119011Y0208212D01*
X0119078Y0209811D02*
X0119678Y0209811D01*
X0119678Y0211409D02*
X0119078Y0211409D01*
X0119078Y0211800D02*
X0114478Y0211800D01*
X0119078Y0211800D01*
X0119078Y0213008D02*
X0119678Y0213008D01*
X0119678Y0214606D02*
X0119078Y0214606D01*
X0118794Y0216205D02*
X0119948Y0216205D01*
X0120894Y0217803D02*
X0117780Y0217803D01*
X0114478Y0217803D02*
X0114478Y0217803D01*
X0114478Y0216205D02*
X0114478Y0216205D01*
X0114478Y0214606D02*
X0114478Y0214606D01*
X0114478Y0213008D02*
X0114478Y0213008D01*
X0114478Y0211800D02*
X0114478Y0211800D01*
X0114478Y0211409D02*
X0114478Y0211409D01*
X0114478Y0209811D02*
X0114478Y0209811D01*
X0114478Y0208212D02*
X0114478Y0208212D01*
X0114478Y0206614D02*
X0114478Y0206614D01*
X0114478Y0205015D02*
X0114478Y0205015D01*
X0112166Y0205015D02*
X0107282Y0205015D01*
X0107197Y0204931D02*
X0108548Y0206281D01*
X0109278Y0208045D01*
X0109278Y0215555D01*
X0108548Y0217319D01*
X0107197Y0218669D01*
X0105433Y0219400D01*
X0103524Y0219400D01*
X0101759Y0218669D01*
X0100409Y0217319D01*
X0099678Y0215555D01*
X0099678Y0208045D01*
X0100409Y0206281D01*
X0101759Y0204931D01*
X0103524Y0204200D01*
X0105433Y0204200D01*
X0107197Y0204931D01*
X0108685Y0206614D02*
X0110531Y0206614D01*
X0109946Y0208212D02*
X0109278Y0208212D01*
X0109278Y0209811D02*
X0109878Y0209811D01*
X0109878Y0211409D02*
X0109278Y0211409D01*
X0109278Y0213008D02*
X0109878Y0213008D01*
X0109878Y0214606D02*
X0109278Y0214606D01*
X0109009Y0216205D02*
X0110163Y0216205D01*
X0111176Y0217803D02*
X0108063Y0217803D01*
X0106370Y0222599D02*
X0102149Y0222599D01*
X0103729Y0224198D02*
X0104962Y0224198D01*
X0104792Y0228993D02*
X0103937Y0228993D01*
X0102713Y0230592D02*
X0105961Y0230592D01*
X0104563Y0232190D02*
X0034394Y0232190D01*
X0035961Y0230592D02*
X0032795Y0230592D01*
X0032678Y0228993D02*
X0034792Y0228993D01*
X0034310Y0227395D02*
X0032678Y0227395D01*
X0032678Y0225796D02*
X0034310Y0225796D01*
X0034962Y0224198D02*
X0032678Y0224198D01*
X0032678Y0222599D02*
X0036370Y0222599D01*
X0032678Y0221001D02*
X0124678Y0221001D01*
X0124678Y0222599D02*
X0112587Y0222599D01*
X0113995Y0224198D02*
X0125088Y0224198D01*
X0126686Y0225796D02*
X0114647Y0225796D01*
X0114647Y0227395D02*
X0141278Y0227395D01*
X0141278Y0228993D02*
X0114164Y0228993D01*
X0112996Y0230592D02*
X0141278Y0230592D01*
X0141278Y0232190D02*
X0112678Y0232190D01*
X0112015Y0233789D02*
X0141941Y0233789D01*
X0143540Y0235387D02*
X0110417Y0235387D01*
X0108818Y0236986D02*
X0145138Y0236986D01*
X0146737Y0238584D02*
X0132768Y0238584D01*
X0134078Y0239895D02*
X0131384Y0237200D01*
X0129478Y0237200D01*
X0129478Y0241800D01*
X0129478Y0241800D01*
X0124878Y0241800D01*
X0124878Y0243705D01*
X0127573Y0246400D01*
X0129478Y0246400D01*
X0129478Y0241800D01*
X0124878Y0241800D01*
X0124878Y0239895D01*
X0127573Y0237200D01*
X0129478Y0237200D01*
X0129478Y0241800D01*
X0129478Y0241800D01*
X0129478Y0241800D01*
X0129478Y0246400D01*
X0131384Y0246400D01*
X0134078Y0243705D01*
X0134078Y0241800D01*
X0129478Y0241800D01*
X0129478Y0241800D01*
X0134078Y0241800D01*
X0134078Y0239895D01*
X0134078Y0240183D02*
X0158336Y0240183D01*
X0159934Y0241781D02*
X0155950Y0241781D01*
X0153007Y0241781D02*
X0134078Y0241781D01*
X0134078Y0243380D02*
X0150545Y0243380D01*
X0149605Y0244978D02*
X0132806Y0244978D01*
X0129478Y0244978D02*
X0129478Y0244978D01*
X0129478Y0243380D02*
X0129478Y0243380D01*
X0129478Y0241781D02*
X0129478Y0241781D01*
X0129478Y0240183D02*
X0129478Y0240183D01*
X0129478Y0238584D02*
X0129478Y0238584D01*
X0126189Y0238584D02*
X0107220Y0238584D01*
X0099663Y0230592D02*
X0099294Y0230592D01*
X0099294Y0228993D02*
X0099663Y0228993D01*
X0099663Y0227395D02*
X0099294Y0227395D01*
X0099294Y0225796D02*
X0099663Y0225796D01*
X0099663Y0224198D02*
X0099294Y0224198D01*
X0099294Y0222599D02*
X0099663Y0222599D01*
X0096808Y0222599D02*
X0092587Y0222599D01*
X0093995Y0224198D02*
X0095228Y0224198D01*
X0095020Y0228993D02*
X0094164Y0228993D01*
X0092996Y0230592D02*
X0096244Y0230592D01*
X0086370Y0222599D02*
X0082587Y0222599D01*
X0083995Y0224198D02*
X0084962Y0224198D01*
X0084792Y0228993D02*
X0084164Y0228993D01*
X0082996Y0230592D02*
X0085961Y0230592D01*
X0075961Y0230592D02*
X0072996Y0230592D01*
X0074164Y0228993D02*
X0074792Y0228993D01*
X0074962Y0224198D02*
X0073995Y0224198D01*
X0072587Y0222599D02*
X0076370Y0222599D01*
X0078063Y0217803D02*
X0080894Y0217803D01*
X0079948Y0216205D02*
X0079009Y0216205D01*
X0079278Y0214606D02*
X0079678Y0214606D01*
X0079678Y0213008D02*
X0079278Y0213008D01*
X0079278Y0211409D02*
X0079678Y0211409D01*
X0079678Y0209811D02*
X0079278Y0209811D01*
X0079278Y0208212D02*
X0079678Y0208212D01*
X0080271Y0206614D02*
X0078685Y0206614D01*
X0077282Y0205015D02*
X0081675Y0205015D01*
X0087282Y0205015D02*
X0091675Y0205015D01*
X0090271Y0206614D02*
X0088685Y0206614D01*
X0089278Y0208212D02*
X0089678Y0208212D01*
X0089678Y0209811D02*
X0089278Y0209811D01*
X0089278Y0211409D02*
X0089678Y0211409D01*
X0089678Y0213008D02*
X0089278Y0213008D01*
X0089278Y0214606D02*
X0089678Y0214606D01*
X0089948Y0216205D02*
X0089009Y0216205D01*
X0088063Y0217803D02*
X0090894Y0217803D01*
X0098063Y0217803D02*
X0100894Y0217803D01*
X0099948Y0216205D02*
X0099009Y0216205D01*
X0099278Y0214606D02*
X0099678Y0214606D01*
X0099678Y0213008D02*
X0099278Y0213008D01*
X0099278Y0211409D02*
X0099678Y0211409D01*
X0099678Y0209811D02*
X0099278Y0209811D01*
X0099278Y0208212D02*
X0099678Y0208212D01*
X0100271Y0206614D02*
X0098685Y0206614D01*
X0097282Y0205015D02*
X0101675Y0205015D01*
X0098603Y0201818D02*
X0196278Y0201818D01*
X0196278Y0200220D02*
X0099253Y0200220D01*
X0099253Y0198621D02*
X0196278Y0198621D01*
X0195176Y0197023D02*
X0098703Y0197023D01*
X0097355Y0195424D02*
X0193577Y0195424D01*
X0197833Y0190629D02*
X0211529Y0190629D01*
X0211529Y0192227D02*
X0199431Y0192227D01*
X0201030Y0193826D02*
X0211529Y0193826D01*
X0211529Y0195424D02*
X0202372Y0195424D01*
X0202678Y0197023D02*
X0211529Y0197023D01*
X0211529Y0198621D02*
X0202678Y0198621D01*
X0202678Y0200220D02*
X0211529Y0200220D01*
X0211529Y0201818D02*
X0202678Y0201818D01*
X0202678Y0203417D02*
X0211529Y0203417D01*
X0211529Y0205015D02*
X0202678Y0205015D01*
X0202678Y0206614D02*
X0211529Y0206614D01*
X0211529Y0208212D02*
X0202678Y0208212D01*
X0202678Y0209811D02*
X0211529Y0209811D01*
X0211529Y0211409D02*
X0202678Y0211409D01*
X0202678Y0213008D02*
X0211529Y0213008D01*
X0211529Y0214606D02*
X0202678Y0214606D01*
X0202678Y0216205D02*
X0211529Y0216205D01*
X0211529Y0217803D02*
X0202678Y0217803D01*
X0202678Y0219402D02*
X0211529Y0219402D01*
X0211529Y0221001D02*
X0202678Y0221001D01*
X0202678Y0222599D02*
X0211529Y0222599D01*
X0211529Y0224198D02*
X0202678Y0224198D01*
X0202678Y0225796D02*
X0211529Y0225796D01*
X0211529Y0227395D02*
X0202678Y0227395D01*
X0202678Y0228993D02*
X0211529Y0228993D01*
X0211529Y0230592D02*
X0202678Y0230592D01*
X0202678Y0232190D02*
X0211529Y0232190D01*
X0211529Y0233789D02*
X0202678Y0233789D01*
X0202678Y0235387D02*
X0211529Y0235387D01*
X0211529Y0236986D02*
X0202678Y0236986D01*
X0202678Y0238584D02*
X0211529Y0238584D01*
X0211529Y0240183D02*
X0202678Y0240183D01*
X0202678Y0241781D02*
X0211529Y0241781D01*
X0211529Y0243380D02*
X0202288Y0243380D01*
X0200826Y0244978D02*
X0211529Y0244978D01*
X0211529Y0246577D02*
X0199227Y0246577D01*
X0197629Y0248175D02*
X0211529Y0248175D01*
X0211529Y0249774D02*
X0195661Y0249774D01*
X0193373Y0243380D02*
X0178412Y0243380D01*
X0176813Y0241781D02*
X0194972Y0241781D01*
X0196278Y0240183D02*
X0167272Y0240183D01*
X0167678Y0241781D02*
X0172143Y0241781D01*
X0170545Y0243380D02*
X0168412Y0243380D01*
X0165788Y0238584D02*
X0196278Y0238584D01*
X0196278Y0236986D02*
X0164189Y0236986D01*
X0162591Y0235387D02*
X0196278Y0235387D01*
X0196278Y0233789D02*
X0160570Y0233789D01*
X0160545Y0243380D02*
X0158412Y0243380D01*
X0151928Y0251372D02*
X0024278Y0251372D01*
X0024278Y0249774D02*
X0150098Y0249774D01*
X0149420Y0248175D02*
X0024278Y0248175D01*
X0024278Y0246577D02*
X0149278Y0246577D01*
X0150954Y0252971D02*
X0024278Y0252971D01*
X0024278Y0254569D02*
X0149355Y0254569D01*
X0149278Y0256168D02*
X0024278Y0256168D01*
X0024278Y0257766D02*
X0026203Y0257766D01*
X0027337Y0256631D02*
X0031619Y0256631D01*
X0034647Y0259659D01*
X0034647Y0263941D01*
X0031619Y0266968D01*
X0027337Y0266968D01*
X0024310Y0263941D01*
X0024310Y0259659D01*
X0027337Y0256631D01*
X0024604Y0259365D02*
X0024278Y0259365D01*
X0024278Y0260963D02*
X0024310Y0260963D01*
X0024278Y0262562D02*
X0024310Y0262562D01*
X0024278Y0264160D02*
X0024529Y0264160D01*
X0024278Y0265759D02*
X0026128Y0265759D01*
X0024278Y0267357D02*
X0034005Y0267357D01*
X0033439Y0268337D02*
X0034849Y0265896D01*
X0036842Y0263903D01*
X0039283Y0262493D01*
X0042006Y0261764D01*
X0044825Y0261764D01*
X0047548Y0262493D01*
X0049989Y0263903D01*
X0051982Y0265896D01*
X0053391Y0268337D01*
X0054121Y0271060D01*
X0054121Y0273879D01*
X0053391Y0276601D01*
X0051982Y0279043D01*
X0049989Y0281036D01*
X0047548Y0282445D01*
X0044825Y0283175D01*
X0042006Y0283175D01*
X0039283Y0282445D01*
X0036842Y0281036D01*
X0034849Y0279043D01*
X0033439Y0276601D01*
X0032710Y0273879D01*
X0032710Y0271060D01*
X0033439Y0268337D01*
X0033274Y0268956D02*
X0024278Y0268956D01*
X0024278Y0270554D02*
X0032845Y0270554D01*
X0032710Y0272153D02*
X0024278Y0272153D01*
X0024278Y0273751D02*
X0032710Y0273751D01*
X0033104Y0275350D02*
X0024278Y0275350D01*
X0024278Y0276948D02*
X0033640Y0276948D01*
X0034563Y0278547D02*
X0024278Y0278547D01*
X0024278Y0280145D02*
X0035952Y0280145D01*
X0038069Y0281744D02*
X0024278Y0281744D01*
X0024278Y0283342D02*
X0123796Y0283342D01*
X0123796Y0281744D02*
X0109313Y0281744D01*
X0108099Y0282445D02*
X0110540Y0281036D01*
X0112533Y0279043D01*
X0113942Y0276601D01*
X0114672Y0273879D01*
X0114672Y0271060D01*
X0113942Y0268337D01*
X0112533Y0265896D01*
X0110540Y0263903D01*
X0108099Y0262493D01*
X0105376Y0261764D01*
X0102557Y0261764D01*
X0099834Y0262493D01*
X0097393Y0263903D01*
X0095400Y0265896D01*
X0093991Y0268337D01*
X0093261Y0271060D01*
X0093261Y0273879D01*
X0093991Y0276601D01*
X0095400Y0279043D01*
X0097393Y0281036D01*
X0099834Y0282445D01*
X0102557Y0283175D01*
X0105376Y0283175D01*
X0108099Y0282445D01*
X0111430Y0280145D02*
X0123911Y0280145D01*
X0124340Y0278547D02*
X0112819Y0278547D01*
X0113742Y0276948D02*
X0124805Y0276948D01*
X0125728Y0275350D02*
X0114278Y0275350D01*
X0114672Y0273751D02*
X0126723Y0273751D01*
X0128321Y0272153D02*
X0114672Y0272153D01*
X0114537Y0270554D02*
X0130505Y0270554D01*
X0134439Y0268956D02*
X0114108Y0268956D01*
X0113377Y0267357D02*
X0211529Y0267357D01*
X0211529Y0265759D02*
X0122829Y0265759D01*
X0121619Y0266968D02*
X0124647Y0263941D01*
X0124647Y0259659D01*
X0121619Y0256631D01*
X0117337Y0256631D01*
X0114310Y0259659D01*
X0114310Y0263941D01*
X0117337Y0266968D01*
X0121619Y0266968D01*
X0124427Y0264160D02*
X0211529Y0264160D01*
X0211529Y0262562D02*
X0124647Y0262562D01*
X0124647Y0260963D02*
X0151288Y0260963D01*
X0149689Y0259365D02*
X0124352Y0259365D01*
X0122754Y0257766D02*
X0149278Y0257766D01*
X0157669Y0260963D02*
X0161288Y0260963D01*
X0159689Y0259365D02*
X0159267Y0259365D01*
X0167669Y0260963D02*
X0171571Y0260963D01*
X0169972Y0259365D02*
X0169267Y0259365D01*
X0174278Y0259365D02*
X0174678Y0259365D01*
X0174678Y0260963D02*
X0174278Y0260963D01*
X0174678Y0261800D02*
X0174678Y0257000D01*
X0179478Y0257000D01*
X0179478Y0258871D01*
X0176549Y0261800D01*
X0174678Y0261800D01*
X0177386Y0260963D02*
X0211529Y0260963D01*
X0211529Y0259365D02*
X0178985Y0259365D01*
X0179478Y0257766D02*
X0211529Y0257766D01*
X0211529Y0256168D02*
X0179478Y0256168D01*
X0179319Y0254569D02*
X0211529Y0254569D01*
X0211529Y0252971D02*
X0177720Y0252971D01*
X0177260Y0251372D02*
X0211529Y0251372D01*
X0211529Y0268956D02*
X0140738Y0268956D01*
X0144672Y0270554D02*
X0211529Y0270554D01*
X0211529Y0272153D02*
X0146856Y0272153D01*
X0148454Y0273751D02*
X0211529Y0273751D01*
X0211529Y0275350D02*
X0149449Y0275350D01*
X0150372Y0276948D02*
X0211529Y0276948D01*
X0211529Y0278547D02*
X0150837Y0278547D01*
X0151266Y0280145D02*
X0211529Y0280145D01*
X0211529Y0281744D02*
X0151381Y0281744D01*
X0151381Y0283342D02*
X0211529Y0283342D01*
X0211529Y0284941D02*
X0151184Y0284941D01*
X0150756Y0286539D02*
X0211529Y0286539D01*
X0211529Y0288138D02*
X0150196Y0288138D01*
X0124981Y0288138D02*
X0024278Y0288138D01*
X0024278Y0286539D02*
X0124422Y0286539D01*
X0123993Y0284941D02*
X0024278Y0284941D01*
X0032829Y0265759D02*
X0034986Y0265759D01*
X0034427Y0264160D02*
X0036584Y0264160D01*
X0034647Y0262562D02*
X0039165Y0262562D01*
X0034647Y0260963D02*
X0074310Y0260963D01*
X0074310Y0259659D02*
X0077337Y0256631D01*
X0081619Y0256631D01*
X0084647Y0259659D01*
X0084647Y0263941D01*
X0081619Y0266968D01*
X0077337Y0266968D01*
X0074310Y0263941D01*
X0074310Y0259659D01*
X0074604Y0259365D02*
X0034352Y0259365D01*
X0032754Y0257766D02*
X0076203Y0257766D01*
X0074310Y0262562D02*
X0047666Y0262562D01*
X0050246Y0264160D02*
X0074529Y0264160D01*
X0076128Y0265759D02*
X0051845Y0265759D01*
X0052826Y0267357D02*
X0094556Y0267357D01*
X0093825Y0268956D02*
X0053557Y0268956D01*
X0053985Y0270554D02*
X0093396Y0270554D01*
X0093261Y0272153D02*
X0054121Y0272153D01*
X0054121Y0273751D02*
X0093261Y0273751D01*
X0093655Y0275350D02*
X0053727Y0275350D01*
X0053191Y0276948D02*
X0094191Y0276948D01*
X0095114Y0278547D02*
X0052268Y0278547D01*
X0050879Y0280145D02*
X0096503Y0280145D01*
X0098620Y0281744D02*
X0048762Y0281744D01*
X0024278Y0244978D02*
X0126151Y0244978D01*
X0124878Y0243380D02*
X0024278Y0243380D01*
X0024278Y0241781D02*
X0124878Y0241781D01*
X0124878Y0240183D02*
X0024278Y0240183D01*
X0024278Y0238584D02*
X0031737Y0238584D01*
X0030138Y0236986D02*
X0024278Y0236986D01*
X0024278Y0235387D02*
X0028540Y0235387D01*
X0026941Y0233789D02*
X0024278Y0233789D01*
X0024278Y0232190D02*
X0026278Y0232190D01*
X0026278Y0230592D02*
X0024278Y0230592D01*
X0024278Y0228993D02*
X0026278Y0228993D01*
X0026278Y0227395D02*
X0024278Y0227395D01*
X0024278Y0225796D02*
X0026278Y0225796D01*
X0026278Y0224198D02*
X0024278Y0224198D01*
X0024278Y0222599D02*
X0026278Y0222599D01*
X0026278Y0221001D02*
X0024278Y0221001D01*
X0024278Y0219402D02*
X0026278Y0219402D01*
X0026278Y0217803D02*
X0024278Y0217803D01*
X0024278Y0216205D02*
X0026278Y0216205D01*
X0026278Y0214606D02*
X0024278Y0214606D01*
X0024278Y0213008D02*
X0026278Y0213008D01*
X0026278Y0211409D02*
X0024278Y0211409D01*
X0024278Y0209811D02*
X0026278Y0209811D01*
X0026278Y0208212D02*
X0024278Y0208212D01*
X0024278Y0206614D02*
X0026278Y0206614D01*
X0026754Y0205015D02*
X0024278Y0205015D01*
X0024278Y0203417D02*
X0028336Y0203417D01*
X0027666Y0204087D02*
X0027666Y0204087D01*
X0029934Y0201818D02*
X0024278Y0201818D01*
X0024278Y0200220D02*
X0031533Y0200220D01*
X0033790Y0198621D02*
X0024278Y0198621D01*
X0024278Y0197023D02*
X0090253Y0197023D01*
X0091601Y0195424D02*
X0024278Y0195424D01*
X0024278Y0193826D02*
X0051979Y0193826D01*
X0051278Y0192227D02*
X0024278Y0192227D01*
X0024278Y0190629D02*
X0051278Y0190629D01*
X0051278Y0189030D02*
X0024278Y0189030D01*
X0024278Y0187432D02*
X0050522Y0187432D01*
X0049794Y0185833D02*
X0042233Y0185833D01*
X0041467Y0186600D02*
X0037490Y0186600D01*
X0034678Y0183788D01*
X0034678Y0179812D01*
X0037490Y0177000D01*
X0041467Y0177000D01*
X0044278Y0179812D01*
X0044278Y0183788D01*
X0041467Y0186600D01*
X0043832Y0184235D02*
X0049678Y0184235D01*
X0049678Y0182636D02*
X0044278Y0182636D01*
X0044278Y0181038D02*
X0049678Y0181038D01*
X0049678Y0179439D02*
X0043906Y0179439D01*
X0042307Y0177841D02*
X0049763Y0177841D01*
X0050448Y0176242D02*
X0024278Y0176242D01*
X0024278Y0174644D02*
X0052452Y0174644D01*
X0054600Y0171447D02*
X0024278Y0171447D01*
X0024278Y0173045D02*
X0056198Y0173045D01*
X0056504Y0174644D02*
X0057797Y0174644D01*
X0058509Y0176242D02*
X0059395Y0176242D01*
X0059194Y0177841D02*
X0059763Y0177841D01*
X0059678Y0179439D02*
X0059278Y0179439D01*
X0059278Y0181038D02*
X0059678Y0181038D01*
X0059678Y0182636D02*
X0059278Y0182636D01*
X0059278Y0184235D02*
X0059678Y0184235D01*
X0059794Y0185833D02*
X0059163Y0185833D01*
X0058435Y0187432D02*
X0060522Y0187432D01*
X0061675Y0205015D02*
X0057282Y0205015D01*
X0058685Y0206614D02*
X0060271Y0206614D01*
X0059678Y0208212D02*
X0059278Y0208212D01*
X0059278Y0209811D02*
X0059678Y0209811D01*
X0059678Y0211409D02*
X0059278Y0211409D01*
X0059278Y0213008D02*
X0059678Y0213008D01*
X0059678Y0214606D02*
X0059278Y0214606D01*
X0059009Y0216205D02*
X0059948Y0216205D01*
X0060894Y0217803D02*
X0058063Y0217803D01*
X0056370Y0222599D02*
X0052149Y0222599D01*
X0053729Y0224198D02*
X0054962Y0224198D01*
X0054792Y0228993D02*
X0053937Y0228993D01*
X0052713Y0230592D02*
X0055961Y0230592D01*
X0049663Y0230592D02*
X0049294Y0230592D01*
X0049294Y0228993D02*
X0049663Y0228993D01*
X0049663Y0227395D02*
X0049294Y0227395D01*
X0049294Y0225796D02*
X0049663Y0225796D01*
X0049663Y0224198D02*
X0049294Y0224198D01*
X0049294Y0222599D02*
X0049663Y0222599D01*
X0046808Y0222599D02*
X0042587Y0222599D01*
X0043995Y0224198D02*
X0045228Y0224198D01*
X0045020Y0228993D02*
X0044164Y0228993D01*
X0042996Y0230592D02*
X0046244Y0230592D01*
X0050894Y0217803D02*
X0032678Y0217803D01*
X0032678Y0216205D02*
X0037095Y0216205D01*
X0037490Y0216600D02*
X0034678Y0213788D01*
X0034678Y0209812D01*
X0037490Y0207000D01*
X0041467Y0207000D01*
X0044278Y0209812D01*
X0044278Y0213788D01*
X0041467Y0216600D01*
X0037490Y0216600D01*
X0035497Y0214606D02*
X0032678Y0214606D01*
X0032678Y0213008D02*
X0034678Y0213008D01*
X0034678Y0211409D02*
X0032678Y0211409D01*
X0032678Y0209811D02*
X0034679Y0209811D01*
X0036278Y0208212D02*
X0032678Y0208212D01*
X0034190Y0206614D02*
X0050271Y0206614D01*
X0049678Y0208212D02*
X0042679Y0208212D01*
X0044277Y0209811D02*
X0049678Y0209811D01*
X0049678Y0211409D02*
X0044278Y0211409D01*
X0044278Y0213008D02*
X0049678Y0213008D01*
X0049678Y0214606D02*
X0043460Y0214606D01*
X0041862Y0216205D02*
X0049948Y0216205D01*
X0051675Y0205015D02*
X0035788Y0205015D01*
X0032678Y0219402D02*
X0125088Y0219402D01*
X0129009Y0216205D02*
X0129948Y0216205D01*
X0129678Y0214606D02*
X0129278Y0214606D01*
X0129278Y0213008D02*
X0129678Y0213008D01*
X0129678Y0211409D02*
X0129278Y0211409D01*
X0129278Y0209811D02*
X0129678Y0209811D01*
X0129678Y0208212D02*
X0129278Y0208212D01*
X0128685Y0206614D02*
X0130271Y0206614D01*
X0131675Y0205015D02*
X0127282Y0205015D01*
X0137282Y0205015D02*
X0141675Y0205015D01*
X0140271Y0206614D02*
X0138685Y0206614D01*
X0139278Y0208212D02*
X0139678Y0208212D01*
X0139678Y0209811D02*
X0139278Y0209811D01*
X0139278Y0211409D02*
X0139678Y0211409D01*
X0139678Y0213008D02*
X0139278Y0213008D01*
X0139278Y0214606D02*
X0139678Y0214606D01*
X0139948Y0216205D02*
X0139009Y0216205D01*
X0138063Y0217803D02*
X0140894Y0217803D01*
X0141278Y0219402D02*
X0133869Y0219402D01*
X0134278Y0221001D02*
X0141278Y0221001D01*
X0141278Y0222599D02*
X0134278Y0222599D01*
X0133869Y0224198D02*
X0141278Y0224198D01*
X0141278Y0225796D02*
X0132270Y0225796D01*
X0147678Y0225796D02*
X0196278Y0225796D01*
X0196278Y0224198D02*
X0147678Y0224198D01*
X0147678Y0222599D02*
X0196278Y0222599D01*
X0196278Y0221001D02*
X0147678Y0221001D01*
X0147678Y0219402D02*
X0196278Y0219402D01*
X0196278Y0217803D02*
X0188063Y0217803D01*
X0188548Y0217319D02*
X0187197Y0218669D01*
X0185433Y0219400D01*
X0183524Y0219400D01*
X0181759Y0218669D01*
X0180409Y0217319D01*
X0179678Y0215555D01*
X0179678Y0208045D01*
X0180409Y0206281D01*
X0181759Y0204931D01*
X0183524Y0204200D01*
X0185433Y0204200D01*
X0187197Y0204931D01*
X0188548Y0206281D01*
X0189278Y0208045D01*
X0189278Y0215555D01*
X0188548Y0217319D01*
X0189009Y0216205D02*
X0196278Y0216205D01*
X0196278Y0214606D02*
X0189278Y0214606D01*
X0189278Y0213008D02*
X0196278Y0213008D01*
X0196278Y0211409D02*
X0189278Y0211409D01*
X0189278Y0209811D02*
X0196278Y0209811D01*
X0196278Y0208212D02*
X0189278Y0208212D01*
X0188685Y0206614D02*
X0196278Y0206614D01*
X0196278Y0205015D02*
X0187282Y0205015D01*
X0181675Y0205015D02*
X0177282Y0205015D01*
X0177197Y0204931D02*
X0178548Y0206281D01*
X0179278Y0208045D01*
X0179278Y0215555D01*
X0178548Y0217319D01*
X0177197Y0218669D01*
X0175433Y0219400D01*
X0173524Y0219400D01*
X0171759Y0218669D01*
X0170409Y0217319D01*
X0169678Y0215555D01*
X0169678Y0208045D01*
X0170409Y0206281D01*
X0171759Y0204931D01*
X0173524Y0204200D01*
X0175433Y0204200D01*
X0177197Y0204931D01*
X0178685Y0206614D02*
X0180271Y0206614D01*
X0179678Y0208212D02*
X0179278Y0208212D01*
X0179278Y0209811D02*
X0179678Y0209811D01*
X0179678Y0211409D02*
X0179278Y0211409D01*
X0179278Y0213008D02*
X0179678Y0213008D01*
X0179678Y0214606D02*
X0179278Y0214606D01*
X0179009Y0216205D02*
X0179948Y0216205D01*
X0180894Y0217803D02*
X0178063Y0217803D01*
X0170894Y0217803D02*
X0168063Y0217803D01*
X0168548Y0217319D02*
X0167197Y0218669D01*
X0165433Y0219400D01*
X0163524Y0219400D01*
X0161759Y0218669D01*
X0160409Y0217319D01*
X0159678Y0215555D01*
X0159678Y0208045D01*
X0160409Y0206281D01*
X0161759Y0204931D01*
X0163524Y0204200D01*
X0165433Y0204200D01*
X0167197Y0204931D01*
X0168548Y0206281D01*
X0169278Y0208045D01*
X0169278Y0215555D01*
X0168548Y0217319D01*
X0169009Y0216205D02*
X0169948Y0216205D01*
X0169678Y0214606D02*
X0169278Y0214606D01*
X0169278Y0213008D02*
X0169678Y0213008D01*
X0169678Y0211409D02*
X0169278Y0211409D01*
X0169278Y0209811D02*
X0169678Y0209811D01*
X0169678Y0208212D02*
X0169278Y0208212D01*
X0168685Y0206614D02*
X0170271Y0206614D01*
X0171675Y0205015D02*
X0167282Y0205015D01*
X0161675Y0205015D02*
X0157282Y0205015D01*
X0157197Y0204931D02*
X0158548Y0206281D01*
X0159278Y0208045D01*
X0159278Y0215555D01*
X0158548Y0217319D01*
X0157197Y0218669D01*
X0155433Y0219400D01*
X0153524Y0219400D01*
X0151759Y0218669D01*
X0150409Y0217319D01*
X0149678Y0215555D01*
X0149678Y0208045D01*
X0150409Y0206281D01*
X0151759Y0204931D01*
X0153524Y0204200D01*
X0155433Y0204200D01*
X0157197Y0204931D01*
X0158685Y0206614D02*
X0160271Y0206614D01*
X0159678Y0208212D02*
X0159278Y0208212D01*
X0159278Y0209811D02*
X0159678Y0209811D01*
X0159678Y0211409D02*
X0159278Y0211409D01*
X0159278Y0213008D02*
X0159678Y0213008D01*
X0159678Y0214606D02*
X0159278Y0214606D01*
X0159009Y0216205D02*
X0159948Y0216205D01*
X0160894Y0217803D02*
X0158063Y0217803D01*
X0150894Y0217803D02*
X0148063Y0217803D01*
X0149009Y0216205D02*
X0149948Y0216205D01*
X0149678Y0214606D02*
X0149278Y0214606D01*
X0149278Y0213008D02*
X0149678Y0213008D01*
X0149678Y0211409D02*
X0149278Y0211409D01*
X0149278Y0209811D02*
X0149678Y0209811D01*
X0149678Y0208212D02*
X0149278Y0208212D01*
X0148685Y0206614D02*
X0150271Y0206614D01*
X0151675Y0205015D02*
X0147282Y0205015D01*
X0148435Y0187432D02*
X0150522Y0187432D01*
X0149794Y0185833D02*
X0149163Y0185833D01*
X0149278Y0184235D02*
X0149678Y0184235D01*
X0149678Y0182636D02*
X0149278Y0182636D01*
X0149278Y0181038D02*
X0149678Y0181038D01*
X0149678Y0179439D02*
X0149278Y0179439D01*
X0149194Y0177841D02*
X0149763Y0177841D01*
X0149562Y0176242D02*
X0150448Y0176242D01*
X0151160Y0174644D02*
X0152452Y0174644D01*
X0152759Y0173045D02*
X0211529Y0173045D01*
X0211529Y0171447D02*
X0154357Y0171447D01*
X0155956Y0169848D02*
X0211529Y0169848D01*
X0211529Y0168250D02*
X0157554Y0168250D01*
X0159153Y0166651D02*
X0211529Y0166651D01*
X0211529Y0165053D02*
X0167514Y0165053D01*
X0168489Y0163454D02*
X0211529Y0163454D01*
X0211529Y0161856D02*
X0168778Y0161856D01*
X0168535Y0160257D02*
X0211529Y0160257D01*
X0211529Y0158659D02*
X0167625Y0158659D01*
X0167178Y0157060D02*
X0211529Y0157060D01*
X0211529Y0155462D02*
X0167178Y0155462D01*
X0167178Y0153863D02*
X0211529Y0153863D01*
X0211529Y0152265D02*
X0167178Y0152265D01*
X0167178Y0150666D02*
X0211529Y0150666D01*
X0211529Y0149068D02*
X0167178Y0149068D01*
X0167178Y0147469D02*
X0211529Y0147469D01*
X0211529Y0145870D02*
X0167196Y0145870D01*
X0168795Y0144272D02*
X0211529Y0144272D01*
X0211529Y0142673D02*
X0169278Y0142673D01*
X0169278Y0141075D02*
X0211529Y0141075D01*
X0211529Y0139476D02*
X0168943Y0139476D01*
X0167344Y0137878D02*
X0211529Y0137878D01*
X0211529Y0136279D02*
X0166504Y0136279D01*
X0166384Y0136400D02*
X0164478Y0136400D01*
X0162573Y0136400D01*
X0159878Y0133705D01*
X0159878Y0131800D01*
X0164478Y0131800D01*
X0164478Y0131800D01*
X0159878Y0131800D01*
X0159878Y0129895D01*
X0162573Y0127200D01*
X0164478Y0127200D01*
X0164478Y0131800D01*
X0164478Y0136400D01*
X0164478Y0131800D01*
X0164478Y0131800D01*
X0164478Y0131800D01*
X0164478Y0127200D01*
X0166384Y0127200D01*
X0169078Y0129895D01*
X0169078Y0131800D01*
X0169078Y0133705D01*
X0166384Y0136400D01*
X0164478Y0136279D02*
X0164478Y0136279D01*
X0164478Y0134681D02*
X0164478Y0134681D01*
X0164478Y0133082D02*
X0164478Y0133082D01*
X0164478Y0131800D02*
X0169078Y0131800D01*
X0164478Y0131800D01*
X0164478Y0131800D01*
X0164478Y0131484D02*
X0164478Y0131484D01*
X0164478Y0129885D02*
X0164478Y0129885D01*
X0164478Y0128287D02*
X0164478Y0128287D01*
X0161486Y0128287D02*
X0147471Y0128287D01*
X0146384Y0127200D02*
X0149078Y0129895D01*
X0149078Y0131800D01*
X0149078Y0133705D01*
X0146384Y0136400D01*
X0144478Y0136400D01*
X0142573Y0136400D01*
X0139878Y0133705D01*
X0139878Y0131800D01*
X0144478Y0131800D01*
X0144478Y0131800D01*
X0139878Y0131800D01*
X0139878Y0129895D01*
X0142573Y0127200D01*
X0144478Y0127200D01*
X0144478Y0131800D01*
X0144478Y0136400D01*
X0144478Y0131800D01*
X0144478Y0131800D01*
X0144478Y0131800D01*
X0144478Y0127200D01*
X0146384Y0127200D01*
X0144478Y0128287D02*
X0144478Y0128287D01*
X0144478Y0129885D02*
X0144478Y0129885D01*
X0144478Y0131484D02*
X0144478Y0131484D01*
X0144478Y0131800D02*
X0144478Y0131800D01*
X0149078Y0131800D01*
X0144478Y0131800D01*
X0144478Y0133082D02*
X0144478Y0133082D01*
X0144478Y0134681D02*
X0144478Y0134681D01*
X0144478Y0136279D02*
X0144478Y0136279D01*
X0142452Y0136279D02*
X0042678Y0136279D01*
X0042678Y0134681D02*
X0140854Y0134681D01*
X0139878Y0133082D02*
X0042678Y0133082D01*
X0042678Y0131484D02*
X0139878Y0131484D01*
X0139888Y0129885D02*
X0042678Y0129885D01*
X0042678Y0128287D02*
X0141486Y0128287D01*
X0149069Y0129885D02*
X0159888Y0129885D01*
X0159878Y0131484D02*
X0149078Y0131484D01*
X0149078Y0133082D02*
X0159878Y0133082D01*
X0160854Y0134681D02*
X0148103Y0134681D01*
X0146504Y0136279D02*
X0162452Y0136279D01*
X0161612Y0137878D02*
X0147344Y0137878D01*
X0148943Y0139476D02*
X0160014Y0139476D01*
X0159678Y0141075D02*
X0149278Y0141075D01*
X0149278Y0142673D02*
X0159678Y0142673D01*
X0160162Y0144272D02*
X0148795Y0144272D01*
X0147678Y0145870D02*
X0160778Y0145870D01*
X0160778Y0147469D02*
X0147678Y0147469D01*
X0147678Y0149068D02*
X0160778Y0149068D01*
X0160778Y0150666D02*
X0147678Y0150666D01*
X0147678Y0152265D02*
X0160778Y0152265D01*
X0160778Y0153863D02*
X0147678Y0153863D01*
X0147678Y0155462D02*
X0160778Y0155462D01*
X0160778Y0157060D02*
X0147678Y0157060D01*
X0148625Y0158659D02*
X0158700Y0158659D01*
X0156496Y0160257D02*
X0149535Y0160257D01*
X0149778Y0161856D02*
X0154897Y0161856D01*
X0153299Y0163454D02*
X0149489Y0163454D01*
X0148514Y0165053D02*
X0151700Y0165053D01*
X0150102Y0166651D02*
X0144653Y0166651D01*
X0143054Y0168250D02*
X0148503Y0168250D01*
X0146905Y0169848D02*
X0141456Y0169848D01*
X0139857Y0171447D02*
X0145306Y0171447D01*
X0143708Y0173045D02*
X0138259Y0173045D01*
X0137678Y0174644D02*
X0142109Y0174644D01*
X0140448Y0176242D02*
X0138509Y0176242D01*
X0139194Y0177841D02*
X0139763Y0177841D01*
X0139678Y0179439D02*
X0139278Y0179439D01*
X0139278Y0181038D02*
X0139678Y0181038D01*
X0139678Y0182636D02*
X0139278Y0182636D01*
X0139278Y0184235D02*
X0139678Y0184235D01*
X0139794Y0185833D02*
X0139163Y0185833D01*
X0138435Y0187432D02*
X0140522Y0187432D01*
X0156504Y0174644D02*
X0162452Y0174644D01*
X0160448Y0176242D02*
X0158509Y0176242D01*
X0159194Y0177841D02*
X0159763Y0177841D01*
X0159678Y0179439D02*
X0159278Y0179439D01*
X0159278Y0181038D02*
X0159678Y0181038D01*
X0159678Y0182636D02*
X0159278Y0182636D01*
X0159278Y0184235D02*
X0159678Y0184235D01*
X0159794Y0185833D02*
X0159163Y0185833D01*
X0158435Y0187432D02*
X0160522Y0187432D01*
X0168435Y0187432D02*
X0170522Y0187432D01*
X0169794Y0185833D02*
X0169163Y0185833D01*
X0169278Y0184235D02*
X0169678Y0184235D01*
X0169678Y0182636D02*
X0169278Y0182636D01*
X0169278Y0181038D02*
X0169678Y0181038D01*
X0169678Y0179439D02*
X0169278Y0179439D01*
X0169194Y0177841D02*
X0169763Y0177841D01*
X0170448Y0176242D02*
X0168509Y0176242D01*
X0166504Y0174644D02*
X0172452Y0174644D01*
X0176504Y0174644D02*
X0182452Y0174644D01*
X0180448Y0176242D02*
X0178509Y0176242D01*
X0179194Y0177841D02*
X0179763Y0177841D01*
X0179678Y0179439D02*
X0179278Y0179439D01*
X0179278Y0181038D02*
X0179678Y0181038D01*
X0179678Y0182636D02*
X0179278Y0182636D01*
X0179278Y0184235D02*
X0179678Y0184235D01*
X0179794Y0185833D02*
X0179163Y0185833D01*
X0178435Y0187432D02*
X0180522Y0187432D01*
X0188435Y0187432D02*
X0211529Y0187432D01*
X0211529Y0189030D02*
X0196154Y0189030D01*
X0189163Y0185833D02*
X0211529Y0185833D01*
X0211529Y0184235D02*
X0189278Y0184235D01*
X0189278Y0182636D02*
X0211529Y0182636D01*
X0211529Y0181038D02*
X0189278Y0181038D01*
X0189278Y0179439D02*
X0211529Y0179439D01*
X0211529Y0177841D02*
X0189194Y0177841D01*
X0188509Y0176242D02*
X0211529Y0176242D01*
X0211529Y0174644D02*
X0186504Y0174644D01*
X0196278Y0203417D02*
X0097016Y0203417D01*
X0071675Y0205015D02*
X0067282Y0205015D01*
X0068685Y0206614D02*
X0070271Y0206614D01*
X0069678Y0208212D02*
X0069278Y0208212D01*
X0069278Y0209811D02*
X0069678Y0209811D01*
X0069678Y0211409D02*
X0069278Y0211409D01*
X0069278Y0213008D02*
X0069678Y0213008D01*
X0069678Y0214606D02*
X0069278Y0214606D01*
X0069009Y0216205D02*
X0069948Y0216205D01*
X0070894Y0217803D02*
X0068063Y0217803D01*
X0066370Y0222599D02*
X0062587Y0222599D01*
X0063995Y0224198D02*
X0064962Y0224198D01*
X0064792Y0228993D02*
X0064164Y0228993D01*
X0062996Y0230592D02*
X0065961Y0230592D01*
X0082754Y0257766D02*
X0116203Y0257766D01*
X0114604Y0259365D02*
X0084352Y0259365D01*
X0084647Y0260963D02*
X0114310Y0260963D01*
X0114310Y0262562D02*
X0108217Y0262562D01*
X0110797Y0264160D02*
X0114529Y0264160D01*
X0116128Y0265759D02*
X0112396Y0265759D01*
X0099716Y0262562D02*
X0084647Y0262562D01*
X0084427Y0264160D02*
X0097136Y0264160D01*
X0095537Y0265759D02*
X0082829Y0265759D01*
X0036723Y0185833D02*
X0024278Y0185833D01*
X0024278Y0184235D02*
X0035125Y0184235D01*
X0034678Y0182636D02*
X0024278Y0182636D01*
X0024278Y0181038D02*
X0034678Y0181038D01*
X0035051Y0179439D02*
X0024278Y0179439D01*
X0024278Y0177841D02*
X0036649Y0177841D01*
X0048205Y0165053D02*
X0024278Y0165053D01*
X0024278Y0166651D02*
X0049804Y0166651D01*
X0051403Y0168250D02*
X0024278Y0168250D01*
X0024278Y0169848D02*
X0053001Y0169848D01*
X0046607Y0163454D02*
X0024278Y0163454D01*
X0024278Y0161856D02*
X0045008Y0161856D01*
X0043410Y0160257D02*
X0024278Y0160257D01*
X0024278Y0158659D02*
X0041811Y0158659D01*
X0040213Y0157060D02*
X0024278Y0157060D01*
X0024278Y0155462D02*
X0038614Y0155462D01*
X0037016Y0153863D02*
X0024278Y0153863D01*
X0024278Y0152265D02*
X0035417Y0152265D01*
X0033819Y0150666D02*
X0024278Y0150666D01*
X0024278Y0149068D02*
X0032220Y0149068D01*
X0030622Y0147469D02*
X0024278Y0147469D01*
X0024278Y0145870D02*
X0029023Y0145870D01*
X0027425Y0144272D02*
X0024278Y0144272D01*
X0024278Y0142673D02*
X0026377Y0142673D01*
X0026278Y0141075D02*
X0024278Y0141075D01*
X0024278Y0139476D02*
X0026278Y0139476D01*
X0026278Y0137878D02*
X0024278Y0137878D01*
X0024278Y0136279D02*
X0026278Y0136279D01*
X0026278Y0134681D02*
X0024278Y0134681D01*
X0024278Y0133082D02*
X0026278Y0133082D01*
X0026278Y0131484D02*
X0024278Y0131484D01*
X0024278Y0129885D02*
X0026278Y0129885D01*
X0026278Y0128287D02*
X0024278Y0128287D01*
X0024278Y0126688D02*
X0026278Y0126688D01*
X0026278Y0125090D02*
X0024278Y0125090D01*
X0024278Y0123491D02*
X0026278Y0123491D01*
X0026278Y0121893D02*
X0024278Y0121893D01*
X0024278Y0120294D02*
X0026278Y0120294D01*
X0026278Y0118696D02*
X0024278Y0118696D01*
X0024278Y0117097D02*
X0026278Y0117097D01*
X0026278Y0115499D02*
X0024278Y0115499D01*
X0024278Y0113900D02*
X0026278Y0113900D01*
X0026278Y0112302D02*
X0024278Y0112302D01*
X0024278Y0110703D02*
X0026278Y0110703D01*
X0026278Y0109105D02*
X0024278Y0109105D01*
X0024278Y0107506D02*
X0026278Y0107506D01*
X0026278Y0105908D02*
X0024278Y0105908D01*
X0024278Y0104309D02*
X0026278Y0104309D01*
X0026278Y0102711D02*
X0024278Y0102711D01*
X0024278Y0101112D02*
X0026278Y0101112D01*
X0026278Y0099514D02*
X0024278Y0099514D01*
X0024278Y0097915D02*
X0026278Y0097915D01*
X0026278Y0096317D02*
X0024278Y0096317D01*
X0024278Y0094718D02*
X0025644Y0094718D01*
X0024857Y0093120D02*
X0024278Y0093120D01*
X0024278Y0081800D02*
X0036278Y0081800D01*
X0036278Y0080388D01*
X0035890Y0080000D01*
X0033842Y0080000D01*
X0032666Y0079513D01*
X0031766Y0078613D01*
X0026766Y0073613D01*
X0026278Y0072437D01*
X0026278Y0045388D01*
X0024678Y0043788D01*
X0024678Y0039812D01*
X0027490Y0037000D01*
X0031467Y0037000D01*
X0034278Y0039812D01*
X0034278Y0043788D01*
X0032678Y0045388D01*
X0032678Y0070475D01*
X0035804Y0073600D01*
X0035890Y0073600D01*
X0037490Y0072000D01*
X0041467Y0072000D01*
X0044278Y0074812D01*
X0044278Y0078788D01*
X0042678Y0080388D01*
X0042678Y0080475D01*
X0043304Y0081100D01*
X0066990Y0081100D01*
X0064678Y0078788D01*
X0064678Y0074812D01*
X0067490Y0072000D01*
X0071467Y0072000D01*
X0073067Y0073600D01*
X0075890Y0073600D01*
X0077490Y0072000D01*
X0081467Y0072000D01*
X0083067Y0073600D01*
X0098153Y0073600D01*
X0101278Y0070475D01*
X0101278Y0063125D01*
X0098153Y0060000D01*
X0095867Y0060000D01*
X0094997Y0060869D01*
X0093233Y0061600D01*
X0085724Y0061600D01*
X0083959Y0060869D01*
X0082609Y0059519D01*
X0081878Y0057755D01*
X0081878Y0055845D01*
X0082609Y0054081D01*
X0083959Y0052731D01*
X0085724Y0052000D01*
X0093233Y0052000D01*
X0094997Y0052731D01*
X0095867Y0053600D01*
X0100115Y0053600D01*
X0101291Y0054087D01*
X0106291Y0059087D01*
X0107191Y0059987D01*
X0107678Y0061163D01*
X0107678Y0072437D01*
X0107191Y0073613D01*
X0102191Y0078613D01*
X0101291Y0079513D01*
X0100115Y0080000D01*
X0083067Y0080000D01*
X0081967Y0081100D01*
X0105653Y0081100D01*
X0115320Y0071433D01*
X0113959Y0070869D01*
X0112609Y0069519D01*
X0111878Y0067755D01*
X0111878Y0065845D01*
X0112609Y0064081D01*
X0113959Y0062731D01*
X0115724Y0062000D01*
X0123233Y0062000D01*
X0124997Y0062731D01*
X0126348Y0064081D01*
X0127078Y0065845D01*
X0127078Y0067755D01*
X0126348Y0069519D01*
X0124997Y0070869D01*
X0123637Y0071433D01*
X0125804Y0073600D01*
X0130890Y0073600D01*
X0132490Y0072000D01*
X0136467Y0072000D01*
X0138067Y0073600D01*
X0145890Y0073600D01*
X0147490Y0072000D01*
X0151467Y0072000D01*
X0153067Y0073600D01*
X0153153Y0073600D01*
X0155878Y0070875D01*
X0155878Y0061084D01*
X0156426Y0059761D01*
X0157439Y0058748D01*
X0176426Y0039761D01*
X0176426Y0039761D01*
X0177439Y0038748D01*
X0178762Y0038200D01*
X0187524Y0038200D01*
X0188333Y0037392D01*
X0190244Y0036600D01*
X0198713Y0036600D01*
X0200624Y0037392D01*
X0202087Y0038854D01*
X0202878Y0040766D01*
X0202878Y0042834D01*
X0202087Y0044746D01*
X0200624Y0046208D01*
X0198877Y0046932D01*
X0199598Y0047166D01*
X0200299Y0047524D01*
X0200936Y0047986D01*
X0201492Y0048543D01*
X0201955Y0049179D01*
X0202312Y0049881D01*
X0202555Y0050629D01*
X0202678Y0051406D01*
X0202678Y0051600D01*
X0194678Y0051600D01*
X0194678Y0052000D01*
X0194278Y0052000D01*
X0194278Y0051600D01*
X0186278Y0051600D01*
X0186278Y0051406D01*
X0186401Y0050629D01*
X0186645Y0049881D01*
X0187002Y0049179D01*
X0187465Y0048543D01*
X0188021Y0047986D01*
X0188658Y0047524D01*
X0189359Y0047166D01*
X0190080Y0046932D01*
X0188333Y0046208D01*
X0187524Y0045400D01*
X0180970Y0045400D01*
X0163078Y0063291D01*
X0163078Y0080309D01*
X0164570Y0081800D01*
X0169595Y0081800D01*
X0169278Y0081034D01*
X0169278Y0072566D01*
X0170070Y0070654D01*
X0171533Y0069192D01*
X0172275Y0068884D01*
X0169678Y0066288D01*
X0169678Y0062312D01*
X0172490Y0059500D01*
X0176467Y0059500D01*
X0179278Y0062312D01*
X0179278Y0066288D01*
X0176682Y0068884D01*
X0177424Y0069192D01*
X0178887Y0070654D01*
X0179478Y0072083D01*
X0180070Y0070654D01*
X0181533Y0069192D01*
X0183444Y0068400D01*
X0185513Y0068400D01*
X0187424Y0069192D01*
X0188887Y0070654D01*
X0189610Y0072402D01*
X0189845Y0071681D01*
X0190202Y0070979D01*
X0190665Y0070343D01*
X0191221Y0069786D01*
X0191858Y0069324D01*
X0192559Y0068966D01*
X0192763Y0068900D01*
X0192573Y0068900D01*
X0189878Y0066205D01*
X0189878Y0064300D01*
X0194478Y0064300D01*
X0194478Y0064300D01*
X0189878Y0064300D01*
X0189878Y0062395D01*
X0192573Y0059700D01*
X0194478Y0059700D01*
X0194478Y0064300D01*
X0194478Y0068900D01*
X0194278Y0068900D01*
X0194278Y0076600D01*
X0194678Y0076600D01*
X0194678Y0068900D01*
X0194478Y0068900D01*
X0194478Y0064300D01*
X0194478Y0064300D01*
X0194478Y0064300D01*
X0194478Y0059700D01*
X0196384Y0059700D01*
X0199078Y0062395D01*
X0199078Y0064300D01*
X0199078Y0066205D01*
X0196384Y0068900D01*
X0196194Y0068900D01*
X0196398Y0068966D01*
X0197099Y0069324D01*
X0197736Y0069786D01*
X0198292Y0070343D01*
X0198755Y0070979D01*
X0199112Y0071681D01*
X0199355Y0072429D01*
X0199478Y0073206D01*
X0199478Y0076600D01*
X0194678Y0076600D01*
X0194678Y0077000D01*
X0199478Y0077000D01*
X0199478Y0080394D01*
X0199355Y0081171D01*
X0199151Y0081800D01*
X0211529Y0081800D01*
X0211529Y0030489D01*
X0209841Y0031463D01*
X0206333Y0032403D01*
X0202702Y0032403D01*
X0199194Y0031463D01*
X0196049Y0029647D01*
X0193481Y0027080D01*
X0191666Y0023935D01*
X0190726Y0020427D01*
X0190726Y0016795D01*
X0191666Y0013287D01*
X0192640Y0011600D01*
X0043167Y0011600D01*
X0044142Y0013287D01*
X0045081Y0016795D01*
X0045081Y0020427D01*
X0044142Y0023935D01*
X0042326Y0027080D01*
X0039758Y0029647D01*
X0036613Y0031463D01*
X0033105Y0032403D01*
X0029474Y0032403D01*
X0025966Y0031463D01*
X0024278Y0030489D01*
X0024278Y0081800D01*
X0024278Y0080332D02*
X0036222Y0080332D01*
X0031886Y0078733D02*
X0024278Y0078733D01*
X0024278Y0077134D02*
X0030287Y0077134D01*
X0028689Y0075536D02*
X0024278Y0075536D01*
X0024278Y0073937D02*
X0027090Y0073937D01*
X0026278Y0072339D02*
X0024278Y0072339D01*
X0024278Y0070740D02*
X0026278Y0070740D01*
X0026278Y0069142D02*
X0024278Y0069142D01*
X0024278Y0067543D02*
X0026278Y0067543D01*
X0026278Y0065945D02*
X0024278Y0065945D01*
X0024278Y0064346D02*
X0026278Y0064346D01*
X0026278Y0062748D02*
X0024278Y0062748D01*
X0024278Y0061149D02*
X0026278Y0061149D01*
X0026278Y0059551D02*
X0024278Y0059551D01*
X0024278Y0057952D02*
X0026278Y0057952D01*
X0026278Y0056354D02*
X0024278Y0056354D01*
X0024278Y0054755D02*
X0026278Y0054755D01*
X0026278Y0053157D02*
X0024278Y0053157D01*
X0024278Y0051558D02*
X0026278Y0051558D01*
X0026278Y0049960D02*
X0024278Y0049960D01*
X0024278Y0048361D02*
X0026278Y0048361D01*
X0026278Y0046763D02*
X0024278Y0046763D01*
X0024278Y0045164D02*
X0026054Y0045164D01*
X0024678Y0043566D02*
X0024278Y0043566D01*
X0024278Y0041967D02*
X0024678Y0041967D01*
X0024678Y0040369D02*
X0024278Y0040369D01*
X0024278Y0038770D02*
X0025720Y0038770D01*
X0024278Y0037172D02*
X0027318Y0037172D01*
X0031638Y0037172D02*
X0037318Y0037172D01*
X0037490Y0037000D02*
X0041467Y0037000D01*
X0044278Y0039812D01*
X0044278Y0043788D01*
X0042678Y0045388D01*
X0042678Y0053212D01*
X0044278Y0054812D01*
X0044278Y0058788D01*
X0041467Y0061600D01*
X0037490Y0061600D01*
X0034678Y0058788D01*
X0034678Y0054812D01*
X0036278Y0053212D01*
X0036278Y0045388D01*
X0034678Y0043788D01*
X0034678Y0039812D01*
X0037490Y0037000D01*
X0035720Y0038770D02*
X0033237Y0038770D01*
X0034278Y0040369D02*
X0034678Y0040369D01*
X0034678Y0041967D02*
X0034278Y0041967D01*
X0034278Y0043566D02*
X0034678Y0043566D01*
X0036054Y0045164D02*
X0032902Y0045164D01*
X0032678Y0046763D02*
X0036278Y0046763D01*
X0036278Y0048361D02*
X0032678Y0048361D01*
X0032678Y0049960D02*
X0036278Y0049960D01*
X0036278Y0051558D02*
X0032678Y0051558D01*
X0032678Y0053157D02*
X0036278Y0053157D01*
X0034735Y0054755D02*
X0032678Y0054755D01*
X0032678Y0056354D02*
X0034678Y0056354D01*
X0034678Y0057952D02*
X0032678Y0057952D01*
X0032678Y0059551D02*
X0035441Y0059551D01*
X0037040Y0061149D02*
X0032678Y0061149D01*
X0032678Y0062748D02*
X0075901Y0062748D01*
X0077499Y0064346D02*
X0032678Y0064346D01*
X0032678Y0065945D02*
X0079098Y0065945D01*
X0080696Y0067543D02*
X0032678Y0067543D01*
X0032678Y0069142D02*
X0081729Y0069142D01*
X0081426Y0068839D02*
X0082439Y0069852D01*
X0083298Y0070208D01*
X0083959Y0070869D01*
X0085724Y0071600D01*
X0093233Y0071600D01*
X0094997Y0070869D01*
X0096348Y0069519D01*
X0097078Y0067755D01*
X0097078Y0065845D01*
X0096348Y0064081D01*
X0094997Y0062731D01*
X0093233Y0062000D01*
X0085724Y0062000D01*
X0084649Y0062445D01*
X0076291Y0054087D01*
X0075115Y0053600D01*
X0073067Y0053600D01*
X0071467Y0052000D01*
X0067490Y0052000D01*
X0064678Y0054812D01*
X0064678Y0058788D01*
X0067490Y0061600D01*
X0071467Y0061600D01*
X0073067Y0060000D01*
X0073153Y0060000D01*
X0081026Y0067874D01*
X0081426Y0068839D01*
X0081806Y0072339D02*
X0099414Y0072339D01*
X0101012Y0070740D02*
X0095126Y0070740D01*
X0096504Y0069142D02*
X0101278Y0069142D01*
X0101278Y0067543D02*
X0097078Y0067543D01*
X0097078Y0065945D02*
X0101278Y0065945D01*
X0101278Y0064346D02*
X0096458Y0064346D01*
X0095014Y0062748D02*
X0100901Y0062748D01*
X0099302Y0061149D02*
X0094321Y0061149D01*
X0095423Y0053157D02*
X0113533Y0053157D01*
X0113959Y0052731D02*
X0115724Y0052000D01*
X0123233Y0052000D01*
X0124997Y0052731D01*
X0126348Y0054081D01*
X0127078Y0055845D01*
X0127078Y0057755D01*
X0126348Y0059519D01*
X0124997Y0060869D01*
X0123233Y0061600D01*
X0115724Y0061600D01*
X0113959Y0060869D01*
X0112609Y0059519D01*
X0111878Y0057755D01*
X0111878Y0055845D01*
X0112609Y0054081D01*
X0113959Y0052731D01*
X0113959Y0050869D02*
X0112609Y0049519D01*
X0111878Y0047755D01*
X0111878Y0045845D01*
X0112609Y0044081D01*
X0113959Y0042731D01*
X0115724Y0042000D01*
X0123233Y0042000D01*
X0124997Y0042731D01*
X0126348Y0044081D01*
X0127078Y0045845D01*
X0127078Y0047755D01*
X0126348Y0049519D01*
X0124997Y0050869D01*
X0123233Y0051600D01*
X0115724Y0051600D01*
X0113959Y0050869D01*
X0113050Y0049960D02*
X0095907Y0049960D01*
X0096348Y0049519D02*
X0094997Y0050869D01*
X0093233Y0051600D01*
X0085724Y0051600D01*
X0083959Y0050869D01*
X0083090Y0050000D01*
X0083067Y0050000D01*
X0081467Y0051600D01*
X0077490Y0051600D01*
X0075890Y0050000D01*
X0053842Y0050000D01*
X0052666Y0049513D01*
X0051766Y0048613D01*
X0046766Y0043613D01*
X0046278Y0042437D01*
X0046278Y0040388D01*
X0044678Y0038788D01*
X0044678Y0034812D01*
X0047490Y0032000D01*
X0051467Y0032000D01*
X0054278Y0034812D01*
X0054278Y0038788D01*
X0052678Y0040388D01*
X0052678Y0040475D01*
X0055804Y0043600D01*
X0075890Y0043600D01*
X0077490Y0042000D01*
X0081467Y0042000D01*
X0083067Y0043600D01*
X0083090Y0043600D01*
X0083959Y0042731D01*
X0085724Y0042000D01*
X0093233Y0042000D01*
X0094997Y0042731D01*
X0096348Y0044081D01*
X0097078Y0045845D01*
X0097078Y0047755D01*
X0096348Y0049519D01*
X0096827Y0048361D02*
X0112130Y0048361D01*
X0111878Y0046763D02*
X0097078Y0046763D01*
X0096796Y0045164D02*
X0112160Y0045164D01*
X0113124Y0043566D02*
X0095832Y0043566D01*
X0094689Y0040734D02*
X0094044Y0041063D01*
X0093356Y0041287D01*
X0092640Y0041400D01*
X0089478Y0041400D01*
X0086316Y0041400D01*
X0085601Y0041287D01*
X0084913Y0041063D01*
X0084267Y0040734D01*
X0083682Y0040309D01*
X0083170Y0039797D01*
X0083093Y0039691D01*
X0081384Y0041400D01*
X0079478Y0041400D01*
X0077573Y0041400D01*
X0074878Y0038705D01*
X0074878Y0036800D01*
X0079478Y0036800D01*
X0079478Y0036800D01*
X0074878Y0036800D01*
X0074878Y0034895D01*
X0077573Y0032200D01*
X0079478Y0032200D01*
X0079478Y0036800D01*
X0079478Y0041400D01*
X0079478Y0036800D01*
X0079478Y0036800D01*
X0079478Y0036800D01*
X0079478Y0032200D01*
X0081384Y0032200D01*
X0083093Y0033909D01*
X0083170Y0033803D01*
X0083682Y0033291D01*
X0084267Y0032866D01*
X0084913Y0032537D01*
X0085601Y0032313D01*
X0086316Y0032200D01*
X0089478Y0032200D01*
X0089478Y0036800D01*
X0089478Y0036800D01*
X0082078Y0036800D01*
X0079478Y0036800D01*
X0079478Y0036800D01*
X0089478Y0036800D01*
X0089478Y0041400D01*
X0089478Y0036800D01*
X0089478Y0036800D01*
X0089478Y0036800D01*
X0089478Y0032200D01*
X0092640Y0032200D01*
X0093356Y0032313D01*
X0094044Y0032537D01*
X0094689Y0032866D01*
X0095275Y0033291D01*
X0095787Y0033803D01*
X0096213Y0034389D01*
X0096541Y0035034D01*
X0096765Y0035723D01*
X0096878Y0036438D01*
X0096878Y0036800D01*
X0089478Y0036800D01*
X0096878Y0036800D01*
X0096878Y0037162D01*
X0096765Y0037877D01*
X0096541Y0038566D01*
X0096213Y0039211D01*
X0095787Y0039797D01*
X0095275Y0040309D01*
X0094689Y0040734D01*
X0095192Y0040369D02*
X0113459Y0040369D01*
X0113959Y0040869D02*
X0112609Y0039519D01*
X0111878Y0037755D01*
X0111878Y0035845D01*
X0112609Y0034081D01*
X0113959Y0032731D01*
X0115724Y0032000D01*
X0123233Y0032000D01*
X0124997Y0032731D01*
X0125867Y0033600D01*
X0125890Y0033600D01*
X0127490Y0032000D01*
X0131467Y0032000D01*
X0134278Y0034812D01*
X0134278Y0037075D01*
X0136291Y0039087D01*
X0137191Y0039987D01*
X0137678Y0041163D01*
X0137678Y0043212D01*
X0139278Y0044812D01*
X0139278Y0048788D01*
X0136467Y0051600D01*
X0132490Y0051600D01*
X0129678Y0048788D01*
X0129678Y0044812D01*
X0131278Y0043212D01*
X0131278Y0043125D01*
X0129753Y0041600D01*
X0127490Y0041600D01*
X0125890Y0040000D01*
X0125867Y0040000D01*
X0124997Y0040869D01*
X0123233Y0041600D01*
X0115724Y0041600D01*
X0113959Y0040869D01*
X0112299Y0038770D02*
X0096437Y0038770D01*
X0096877Y0037172D02*
X0111878Y0037172D01*
X0111991Y0035573D02*
X0096716Y0035573D01*
X0095912Y0033975D02*
X0112715Y0033975D01*
X0114815Y0032376D02*
X0093549Y0032376D01*
X0089478Y0032376D02*
X0089478Y0032376D01*
X0089478Y0033975D02*
X0089478Y0033975D01*
X0089478Y0035573D02*
X0089478Y0035573D01*
X0089478Y0036800D02*
X0089478Y0036800D01*
X0089478Y0037172D02*
X0089478Y0037172D01*
X0089478Y0038770D02*
X0089478Y0038770D01*
X0089478Y0040369D02*
X0089478Y0040369D01*
X0083764Y0040369D02*
X0082415Y0040369D01*
X0079478Y0040369D02*
X0079478Y0040369D01*
X0079478Y0038770D02*
X0079478Y0038770D01*
X0079478Y0037172D02*
X0079478Y0037172D01*
X0079478Y0035573D02*
X0079478Y0035573D01*
X0079478Y0033975D02*
X0079478Y0033975D01*
X0079478Y0032376D02*
X0079478Y0032376D01*
X0077397Y0032376D02*
X0051843Y0032376D01*
X0053441Y0033975D02*
X0075798Y0033975D01*
X0074878Y0035573D02*
X0054278Y0035573D01*
X0054278Y0037172D02*
X0074878Y0037172D01*
X0074943Y0038770D02*
X0054278Y0038770D01*
X0052698Y0040369D02*
X0076542Y0040369D01*
X0075924Y0043566D02*
X0055770Y0043566D01*
X0054171Y0041967D02*
X0130120Y0041967D01*
X0130924Y0043566D02*
X0125832Y0043566D01*
X0126796Y0045164D02*
X0129678Y0045164D01*
X0129678Y0046763D02*
X0127078Y0046763D01*
X0126827Y0048361D02*
X0129678Y0048361D01*
X0130850Y0049960D02*
X0125907Y0049960D01*
X0123334Y0051558D02*
X0132448Y0051558D01*
X0136508Y0051558D02*
X0147448Y0051558D01*
X0147490Y0051600D02*
X0144678Y0048788D01*
X0144678Y0044812D01*
X0147490Y0042000D01*
X0151467Y0042000D01*
X0154278Y0044812D01*
X0154278Y0048788D01*
X0151467Y0051600D01*
X0147490Y0051600D01*
X0145850Y0049960D02*
X0138107Y0049960D01*
X0139278Y0048361D02*
X0144678Y0048361D01*
X0144678Y0046763D02*
X0139278Y0046763D01*
X0139278Y0045164D02*
X0144678Y0045164D01*
X0145924Y0043566D02*
X0138032Y0043566D01*
X0137678Y0041967D02*
X0174220Y0041967D01*
X0175818Y0040369D02*
X0162698Y0040369D01*
X0161467Y0041600D02*
X0157490Y0041600D01*
X0154678Y0038788D01*
X0154678Y0034812D01*
X0156278Y0033212D01*
X0156278Y0030388D01*
X0154678Y0028788D01*
X0154678Y0024812D01*
X0157490Y0022000D01*
X0161467Y0022000D01*
X0164278Y0024812D01*
X0164278Y0028788D01*
X0162678Y0030388D01*
X0162678Y0033212D01*
X0164278Y0034812D01*
X0164278Y0038788D01*
X0161467Y0041600D01*
X0164278Y0038770D02*
X0177417Y0038770D01*
X0172621Y0043566D02*
X0153032Y0043566D01*
X0154278Y0045164D02*
X0171023Y0045164D01*
X0169424Y0046763D02*
X0154278Y0046763D01*
X0154278Y0048361D02*
X0167826Y0048361D01*
X0166227Y0049960D02*
X0153107Y0049960D01*
X0151508Y0051558D02*
X0164629Y0051558D01*
X0163030Y0053157D02*
X0125423Y0053157D01*
X0126627Y0054755D02*
X0161432Y0054755D01*
X0159833Y0056354D02*
X0127078Y0056354D01*
X0126996Y0057952D02*
X0158235Y0057952D01*
X0157439Y0058748D02*
X0157439Y0058748D01*
X0156636Y0059551D02*
X0126316Y0059551D01*
X0124321Y0061149D02*
X0155878Y0061149D01*
X0155878Y0062748D02*
X0125014Y0062748D01*
X0126458Y0064346D02*
X0155878Y0064346D01*
X0155878Y0065945D02*
X0127078Y0065945D01*
X0127078Y0067543D02*
X0155878Y0067543D01*
X0155878Y0069142D02*
X0126504Y0069142D01*
X0125126Y0070740D02*
X0155878Y0070740D01*
X0154414Y0072339D02*
X0151806Y0072339D01*
X0147151Y0072339D02*
X0136806Y0072339D01*
X0132151Y0072339D02*
X0124543Y0072339D01*
X0114414Y0072339D02*
X0107678Y0072339D01*
X0107678Y0070740D02*
X0113831Y0070740D01*
X0112453Y0069142D02*
X0107678Y0069142D01*
X0107678Y0067543D02*
X0111878Y0067543D01*
X0111878Y0065945D02*
X0107678Y0065945D01*
X0107678Y0064346D02*
X0112499Y0064346D01*
X0113942Y0062748D02*
X0107678Y0062748D01*
X0107672Y0061149D02*
X0114636Y0061149D01*
X0112641Y0059551D02*
X0106755Y0059551D01*
X0105156Y0057952D02*
X0111960Y0057952D01*
X0111878Y0056354D02*
X0103558Y0056354D01*
X0101959Y0054755D02*
X0112330Y0054755D01*
X0115623Y0051558D02*
X0093334Y0051558D01*
X0085623Y0051558D02*
X0081508Y0051558D01*
X0083533Y0053157D02*
X0072623Y0053157D01*
X0076959Y0054755D02*
X0082330Y0054755D01*
X0081878Y0056354D02*
X0078558Y0056354D01*
X0080156Y0057952D02*
X0081960Y0057952D01*
X0081755Y0059551D02*
X0082641Y0059551D01*
X0083353Y0061149D02*
X0084636Y0061149D01*
X0083831Y0070740D02*
X0032944Y0070740D01*
X0034543Y0072339D02*
X0037151Y0072339D01*
X0041806Y0072339D02*
X0067151Y0072339D01*
X0065553Y0073937D02*
X0043404Y0073937D01*
X0044278Y0075536D02*
X0064678Y0075536D01*
X0064678Y0077134D02*
X0044278Y0077134D01*
X0044278Y0078733D02*
X0064678Y0078733D01*
X0066222Y0080332D02*
X0042735Y0080332D01*
X0044100Y0093120D02*
X0165707Y0093120D01*
X0167305Y0094718D02*
X0043313Y0094718D01*
X0042678Y0118696D02*
X0211529Y0118696D01*
X0211529Y0120294D02*
X0042678Y0120294D01*
X0042678Y0121893D02*
X0211529Y0121893D01*
X0211529Y0123491D02*
X0042678Y0123491D01*
X0042678Y0125090D02*
X0211529Y0125090D01*
X0211529Y0126688D02*
X0042678Y0126688D01*
X0082735Y0080332D02*
X0106421Y0080332D01*
X0108020Y0078733D02*
X0102071Y0078733D01*
X0103669Y0077134D02*
X0109618Y0077134D01*
X0111217Y0075536D02*
X0105268Y0075536D01*
X0106866Y0073937D02*
X0112815Y0073937D01*
X0125498Y0040369D02*
X0126259Y0040369D01*
X0127114Y0032376D02*
X0124141Y0032376D01*
X0125352Y0029179D02*
X0040226Y0029179D01*
X0041825Y0027581D02*
X0124878Y0027581D01*
X0124878Y0026800D02*
X0124878Y0028705D01*
X0127573Y0031400D01*
X0129478Y0031400D01*
X0129478Y0026800D01*
X0129478Y0026800D01*
X0124878Y0026800D01*
X0124878Y0024895D01*
X0127573Y0022200D01*
X0129478Y0022200D01*
X0129478Y0026800D01*
X0124878Y0026800D01*
X0124878Y0025982D02*
X0042959Y0025982D01*
X0043882Y0024384D02*
X0125389Y0024384D01*
X0126988Y0022785D02*
X0044450Y0022785D01*
X0044878Y0021187D02*
X0190929Y0021187D01*
X0190726Y0019588D02*
X0045081Y0019588D01*
X0045081Y0017990D02*
X0190726Y0017990D01*
X0190834Y0016391D02*
X0044973Y0016391D01*
X0044545Y0014793D02*
X0191262Y0014793D01*
X0191719Y0013194D02*
X0044088Y0013194D01*
X0037800Y0030778D02*
X0126951Y0030778D01*
X0129478Y0030778D02*
X0129478Y0030778D01*
X0129478Y0031400D02*
X0131384Y0031400D01*
X0134078Y0028705D01*
X0134078Y0026800D01*
X0129478Y0026800D01*
X0129478Y0026800D01*
X0129478Y0026800D01*
X0129478Y0022200D01*
X0131384Y0022200D01*
X0134078Y0024895D01*
X0134078Y0026800D01*
X0129478Y0026800D01*
X0129478Y0031400D01*
X0129478Y0029179D02*
X0129478Y0029179D01*
X0129478Y0027581D02*
X0129478Y0027581D01*
X0129478Y0026800D02*
X0129478Y0026800D01*
X0129478Y0025982D02*
X0129478Y0025982D01*
X0129478Y0024384D02*
X0129478Y0024384D01*
X0129478Y0022785D02*
X0129478Y0022785D01*
X0131969Y0022785D02*
X0156705Y0022785D01*
X0155106Y0024384D02*
X0133567Y0024384D01*
X0134078Y0025982D02*
X0154678Y0025982D01*
X0154678Y0027581D02*
X0134078Y0027581D01*
X0133605Y0029179D02*
X0155069Y0029179D01*
X0156278Y0030778D02*
X0132006Y0030778D01*
X0131843Y0032376D02*
X0156278Y0032376D01*
X0155515Y0033975D02*
X0133441Y0033975D01*
X0134278Y0035573D02*
X0154678Y0035573D01*
X0154678Y0037172D02*
X0134376Y0037172D01*
X0135974Y0038770D02*
X0154678Y0038770D01*
X0156259Y0040369D02*
X0137349Y0040369D01*
X0162678Y0032376D02*
X0202601Y0032376D01*
X0206434Y0032376D02*
X0211529Y0032376D01*
X0211529Y0030778D02*
X0211029Y0030778D01*
X0211529Y0033975D02*
X0163441Y0033975D01*
X0164278Y0035573D02*
X0211529Y0035573D01*
X0211529Y0037172D02*
X0200093Y0037172D01*
X0202002Y0038770D02*
X0211529Y0038770D01*
X0211529Y0040369D02*
X0202714Y0040369D01*
X0202878Y0041967D02*
X0211529Y0041967D01*
X0211529Y0043566D02*
X0202575Y0043566D01*
X0201668Y0045164D02*
X0211529Y0045164D01*
X0211529Y0046763D02*
X0199285Y0046763D01*
X0201311Y0048361D02*
X0211529Y0048361D01*
X0211529Y0049960D02*
X0202338Y0049960D01*
X0202678Y0051558D02*
X0211529Y0051558D01*
X0211529Y0053157D02*
X0202495Y0053157D01*
X0202555Y0052971D02*
X0202312Y0053719D01*
X0201955Y0054421D01*
X0201492Y0055057D01*
X0200936Y0055614D01*
X0200299Y0056076D01*
X0199598Y0056434D01*
X0198849Y0056677D01*
X0198072Y0056800D01*
X0194678Y0056800D01*
X0194678Y0052000D01*
X0202678Y0052000D01*
X0202678Y0052194D01*
X0202555Y0052971D01*
X0201712Y0054755D02*
X0211529Y0054755D01*
X0211529Y0056354D02*
X0199754Y0056354D01*
X0194678Y0056354D02*
X0194278Y0056354D01*
X0194278Y0056800D02*
X0190885Y0056800D01*
X0190108Y0056677D01*
X0189359Y0056434D01*
X0188658Y0056076D01*
X0188021Y0055614D01*
X0187465Y0055057D01*
X0187002Y0054421D01*
X0186645Y0053719D01*
X0186401Y0052971D01*
X0186278Y0052194D01*
X0186278Y0052000D01*
X0194278Y0052000D01*
X0194278Y0056800D01*
X0194278Y0054755D02*
X0194678Y0054755D01*
X0194678Y0053157D02*
X0194278Y0053157D01*
X0189202Y0056354D02*
X0170016Y0056354D01*
X0171614Y0054755D02*
X0187245Y0054755D01*
X0186462Y0053157D02*
X0173213Y0053157D01*
X0174811Y0051558D02*
X0186278Y0051558D01*
X0186619Y0049960D02*
X0176410Y0049960D01*
X0178008Y0048361D02*
X0187646Y0048361D01*
X0189671Y0046763D02*
X0179607Y0046763D01*
X0176517Y0059551D02*
X0211529Y0059551D01*
X0211529Y0061149D02*
X0197833Y0061149D01*
X0199078Y0062748D02*
X0211529Y0062748D01*
X0211529Y0064346D02*
X0199078Y0064346D01*
X0199078Y0064300D02*
X0194478Y0064300D01*
X0194478Y0064300D01*
X0199078Y0064300D01*
X0199078Y0065945D02*
X0211529Y0065945D01*
X0211529Y0067543D02*
X0197740Y0067543D01*
X0196742Y0069142D02*
X0211529Y0069142D01*
X0211529Y0070740D02*
X0198581Y0070740D01*
X0199326Y0072339D02*
X0211529Y0072339D01*
X0211529Y0073937D02*
X0199478Y0073937D01*
X0199478Y0075536D02*
X0211529Y0075536D01*
X0211529Y0077134D02*
X0199478Y0077134D01*
X0199478Y0078733D02*
X0211529Y0078733D01*
X0211529Y0080332D02*
X0199478Y0080332D01*
X0194678Y0075536D02*
X0194278Y0075536D01*
X0194278Y0073937D02*
X0194678Y0073937D01*
X0194678Y0072339D02*
X0194278Y0072339D01*
X0194278Y0070740D02*
X0194678Y0070740D01*
X0194678Y0069142D02*
X0194278Y0069142D01*
X0194478Y0067543D02*
X0194478Y0067543D01*
X0194478Y0065945D02*
X0194478Y0065945D01*
X0194478Y0064346D02*
X0194478Y0064346D01*
X0194478Y0062748D02*
X0194478Y0062748D01*
X0194478Y0061149D02*
X0194478Y0061149D01*
X0191124Y0061149D02*
X0178116Y0061149D01*
X0179278Y0062748D02*
X0189878Y0062748D01*
X0189878Y0064346D02*
X0179278Y0064346D01*
X0179278Y0065945D02*
X0189878Y0065945D01*
X0191216Y0067543D02*
X0178023Y0067543D01*
X0177304Y0069142D02*
X0181653Y0069142D01*
X0180034Y0070740D02*
X0178922Y0070740D01*
X0187304Y0069142D02*
X0192214Y0069142D01*
X0190376Y0070740D02*
X0188922Y0070740D01*
X0189584Y0072339D02*
X0189631Y0072339D01*
X0172439Y0059551D02*
X0166819Y0059551D01*
X0168417Y0057952D02*
X0211529Y0057952D01*
X0198007Y0030778D02*
X0162678Y0030778D01*
X0163887Y0029179D02*
X0195581Y0029179D01*
X0193982Y0027581D02*
X0164278Y0027581D01*
X0164278Y0025982D02*
X0192848Y0025982D01*
X0191925Y0024384D02*
X0163850Y0024384D01*
X0162252Y0022785D02*
X0191358Y0022785D01*
X0188864Y0037172D02*
X0164278Y0037172D01*
X0165220Y0061149D02*
X0170841Y0061149D01*
X0169678Y0062748D02*
X0163622Y0062748D01*
X0163078Y0064346D02*
X0169678Y0064346D01*
X0169678Y0065945D02*
X0163078Y0065945D01*
X0163078Y0067543D02*
X0170934Y0067543D01*
X0171653Y0069142D02*
X0163078Y0069142D01*
X0163078Y0070740D02*
X0170034Y0070740D01*
X0169372Y0072339D02*
X0163078Y0072339D01*
X0163078Y0073937D02*
X0169278Y0073937D01*
X0169278Y0075536D02*
X0163078Y0075536D01*
X0163078Y0077134D02*
X0169278Y0077134D01*
X0169278Y0078733D02*
X0163078Y0078733D01*
X0163101Y0080332D02*
X0169278Y0080332D01*
X0179021Y0104309D02*
X0179969Y0104309D01*
X0179783Y0109105D02*
X0179098Y0109105D01*
X0177858Y0110703D02*
X0181381Y0110703D01*
X0184478Y0110703D02*
X0184478Y0110703D01*
X0184478Y0109105D02*
X0184478Y0109105D01*
X0187575Y0110703D02*
X0211529Y0110703D01*
X0211529Y0109105D02*
X0189174Y0109105D01*
X0189428Y0107506D02*
X0211529Y0107506D01*
X0211529Y0105908D02*
X0189428Y0105908D01*
X0188988Y0104309D02*
X0211529Y0104309D01*
X0211529Y0102711D02*
X0187389Y0102711D01*
X0171098Y0110703D02*
X0159078Y0110703D01*
X0159078Y0109105D02*
X0161692Y0109105D01*
X0161426Y0108839D02*
X0161426Y0108839D01*
X0160093Y0107506D02*
X0159078Y0107506D01*
X0167471Y0128287D02*
X0211529Y0128287D01*
X0211529Y0129885D02*
X0169069Y0129885D01*
X0169078Y0131484D02*
X0211529Y0131484D01*
X0211529Y0133082D02*
X0169078Y0133082D01*
X0168103Y0134681D02*
X0211529Y0134681D01*
X0141612Y0137878D02*
X0117344Y0137878D01*
X0118943Y0139476D02*
X0140014Y0139476D01*
X0139678Y0141075D02*
X0119278Y0141075D01*
X0119278Y0142673D02*
X0139678Y0142673D01*
X0140162Y0144272D02*
X0118795Y0144272D01*
X0117196Y0145870D02*
X0141278Y0145870D01*
X0141278Y0147469D02*
X0116653Y0147469D01*
X0116384Y0147200D02*
X0119078Y0149895D01*
X0119078Y0151800D01*
X0119078Y0153705D01*
X0116384Y0156400D01*
X0114478Y0156400D01*
X0112573Y0156400D01*
X0109878Y0153705D01*
X0109878Y0151800D01*
X0114478Y0151800D01*
X0114478Y0151800D01*
X0109878Y0151800D01*
X0109878Y0149895D01*
X0112573Y0147200D01*
X0114478Y0147200D01*
X0114478Y0151800D01*
X0114478Y0156400D01*
X0114478Y0151800D01*
X0114478Y0151800D01*
X0114478Y0151800D01*
X0114478Y0147200D01*
X0116384Y0147200D01*
X0114478Y0147469D02*
X0114478Y0147469D01*
X0114478Y0149068D02*
X0114478Y0149068D01*
X0114478Y0150666D02*
X0114478Y0150666D01*
X0114478Y0151800D02*
X0114478Y0151800D01*
X0119078Y0151800D01*
X0114478Y0151800D01*
X0114478Y0152265D02*
X0114478Y0152265D01*
X0114478Y0153863D02*
X0114478Y0153863D01*
X0114478Y0155462D02*
X0114478Y0155462D01*
X0111635Y0155462D02*
X0087678Y0155462D01*
X0087678Y0157060D02*
X0141278Y0157060D01*
X0141278Y0155462D02*
X0117322Y0155462D01*
X0118921Y0153863D02*
X0141278Y0153863D01*
X0141278Y0152265D02*
X0119078Y0152265D01*
X0119078Y0150666D02*
X0141278Y0150666D01*
X0141278Y0149068D02*
X0118251Y0149068D01*
X0112304Y0147469D02*
X0093335Y0147469D01*
X0094933Y0145870D02*
X0111761Y0145870D01*
X0110705Y0149068D02*
X0091736Y0149068D01*
X0090138Y0150666D02*
X0109878Y0150666D01*
X0109878Y0152265D02*
X0088539Y0152265D01*
X0087678Y0153863D02*
X0110036Y0153863D01*
X0087678Y0158659D02*
X0141278Y0158659D01*
X0140422Y0160257D02*
X0087678Y0160257D01*
X0087678Y0161856D02*
X0140178Y0161856D01*
X0138799Y0163454D02*
X0087678Y0163454D01*
X0087678Y0165053D02*
X0137200Y0165053D01*
X0135602Y0166651D02*
X0087678Y0166651D01*
X0147678Y0227395D02*
X0196278Y0227395D01*
X0196278Y0228993D02*
X0147678Y0228993D01*
X0147795Y0230592D02*
X0196278Y0230592D01*
X0196278Y0232190D02*
X0149394Y0232190D01*
X0174278Y0257766D02*
X0174678Y0257766D01*
X0077151Y0072339D02*
X0071806Y0072339D01*
X0071917Y0061149D02*
X0074302Y0061149D01*
X0067040Y0061149D02*
X0041917Y0061149D01*
X0043516Y0059551D02*
X0065441Y0059551D01*
X0064678Y0057952D02*
X0044278Y0057952D01*
X0044278Y0056354D02*
X0064678Y0056354D01*
X0064735Y0054755D02*
X0044222Y0054755D01*
X0042678Y0053157D02*
X0066333Y0053157D01*
X0077448Y0051558D02*
X0042678Y0051558D01*
X0042678Y0049960D02*
X0053745Y0049960D01*
X0051514Y0048361D02*
X0042678Y0048361D01*
X0042678Y0046763D02*
X0049916Y0046763D01*
X0048317Y0045164D02*
X0042902Y0045164D01*
X0044278Y0043566D02*
X0046746Y0043566D01*
X0046278Y0041967D02*
X0044278Y0041967D01*
X0044278Y0040369D02*
X0046259Y0040369D01*
X0044678Y0038770D02*
X0043237Y0038770D01*
X0044678Y0037172D02*
X0041638Y0037172D01*
X0044678Y0035573D02*
X0024278Y0035573D01*
X0024278Y0033975D02*
X0045515Y0033975D01*
X0047114Y0032376D02*
X0033206Y0032376D01*
X0029373Y0032376D02*
X0024278Y0032376D01*
X0024278Y0030778D02*
X0024778Y0030778D01*
X0081560Y0032376D02*
X0085408Y0032376D01*
X0083124Y0043566D02*
X0083032Y0043566D01*
D23*
X0039478Y0091800D03*
X0029478Y0091800D03*
X0076978Y0169300D03*
X0094478Y0199300D03*
X0109478Y0101800D03*
D24*
X0119478Y0261800D03*
X0079478Y0261800D03*
X0029478Y0261800D03*
M02*
