%
M48
M72
T01C0.03150
T02C0.03200
T03C0.03937
T04C0.04000
T05C0.11811
%
T01
X29478Y91800
X39478Y91800
X76978Y169300
X94478Y199300
X109478Y101800
T02
X114478Y111800
X124478Y106800
X134478Y106800
X149478Y101800
X154478Y109300
X159478Y101800
X174478Y106800
X184478Y106800
X164478Y131800
X164478Y141800
X163978Y161800
X164478Y181800
X154478Y181800
X144478Y181800
X134478Y181800
X124478Y181800
X114478Y181800
X114478Y171800
X104478Y181800
X94478Y181800
X84478Y181800
X74478Y181800
X64478Y181800
X54478Y181800
X39478Y181800
X39478Y211800
X54478Y211800
X64478Y211800
X74478Y211800
X84478Y211800
X94478Y211800
X104478Y211800
X114478Y211800
X124478Y211800
X134478Y211800
X144478Y211800
X154478Y211800
X164478Y211800
X174478Y211800
X184478Y211800
X184478Y181800
X174478Y181800
X144978Y161800
X144478Y141800
X144478Y131800
X114478Y141800
X114478Y151800
X129478Y221800
X129478Y241800
X134478Y76800
X149478Y76800
X149478Y46800
X159478Y36800
X159478Y26800
X134478Y46800
X129478Y36800
X129478Y26800
X119478Y36800
X119478Y46800
X119478Y56800
X119478Y66800
X89478Y66800
X89478Y56800
X89478Y46800
X89478Y36800
X79478Y36800
X79478Y46800
X69478Y56800
X69478Y76800
X79478Y76800
X49478Y36800
X39478Y41800
X29478Y41800
X39478Y56800
X39478Y76800
X174478Y64300
X194478Y64300
T03
X109478Y226800
X99478Y226800
X89478Y226800
X79478Y226800
X69478Y226800
X59478Y226800
X49478Y226800
X39478Y226800
X29478Y261800
X79478Y261800
X119478Y261800
T04
X154478Y256800
X154478Y246800
X164478Y246800
X164478Y256800
X174478Y256800
X174478Y246800
X174478Y76800
X184478Y76800
X194478Y76800
X194478Y51800
X194478Y41800
T05
X31289Y18611
X204518Y18611
X103967Y272469
X137589Y282391
X43415Y272469
M30
